<svg width="29" height="24" viewBox="0 0 29 24" fill="none" xmlns="http://www.w3.org/2000/svg">
<g opacity="0.71">
<path d="M22 23H8C6.35 23 5 21.65 5 20V13C5 11.35 6.35 10 8 10H22C23.65 10 25 11.35 25 13V20C25 21.66 23.65 23 22 23ZM8 12C7.45 12 7 12.45 7 13V20C7 20.55 7.45 21 8 21H22C22.55 21 23 20.55 23 20V13C23 12.45 22.55 12 22 12H8Z" fill="#828282"/>
<path d="M10 12.0006C9.45 12.0006 9 11.5506 9 11.0006V7.00059C9 5.51059 9.55 4.08059 10.55 2.97059C11.55 1.86059 12.92 1.17059 14.4 1.02059C15.88 0.870588 17.36 1.28059 18.56 2.16059C19.76 3.04059 20.58 4.34059 20.88 5.80059C20.99 6.34059 20.64 6.87059 20.1 6.98059C19.56 7.09059 19.03 6.74059 18.92 6.20059C18.72 5.23059 18.17 4.37059 17.37 3.77059C16.57 3.18059 15.58 2.91059 14.6 3.01059C13.61 3.11059 12.7 3.57059 12.03 4.31059C11.36 5.05059 11 6.01059 11 7.00059V11.0006C11 11.5606 10.55 12.0006 10 12.0006Z" fill="#828282"/>
</g>
<path d="M1 22L28 6" stroke="#A6A6A6" stroke-width="2"/>
</svg>
