<svg width="23" height="23" viewBox="0 0 23 23" fill="none" xmlns="http://www.w3.org/2000/svg">
<rect width="22.8905" height="22.8904" rx="11.4452" fill="#554CBD"/>
<path d="M9.13457 7.01172C9.00911 7.01167 8.88338 7.01628 8.80078 7.02553C8.4281 7.06726 8.09121 7.15725 7.77539 7.3013L10.0221 9.42484L11.5075 8.01995L11.5074 8.01942L11.5024 8.02407L11.3625 7.89468C11.2057 7.74957 11.0896 7.65568 10.9503 7.56136C10.5104 7.26356 10.0297 7.08997 9.46687 7.02576C9.38526 7.01645 9.26004 7.01176 9.13457 7.01172V7.01172Z" fill="white"/>
<path d="M7.77442 7.30273L7.69988 7.33813C7.4017 7.47969 7.06546 7.71959 6.84225 7.95002C6.63537 8.1636 6.50548 8.33501 6.36264 8.58293L6.29492 8.70279L8.5414 10.8249L10.0211 9.42628C10.0211 9.42628 7.77493 7.30321 7.77442 7.30273V7.30273Z" fill="white"/>
<path d="M6.29591 8.70117L6.24752 8.80836C6.1319 9.06463 6.05516 9.33427 6.01562 9.62304C5.99702 9.75885 5.99437 10.1669 6.01125 10.2955C6.08912 10.8888 6.308 11.3826 6.69476 11.835L6.96405 12.1154C6.9963 12.1463 7.02547 12.1744 7.06841 12.2154L8.54164 10.824C8.54781 10.8182 6.29591 8.70117 6.29591 8.70117V8.70117Z" fill="white"/>
<path d="M16.6996 8.68359C16.6974 8.68359 15.7876 9.54168 14.6518 10.6138L10.0195 15.0058C10.7437 15.6896 11.3419 16.2507 11.3527 16.2559C11.364 16.2614 11.388 16.2705 11.4061 16.2761C11.4248 16.2819 11.4624 16.2852 11.4932 16.2837C11.6031 16.2782 11.4261 16.4388 13.9074 14.0921C15.1516 12.9153 16.2026 11.9158 16.2428 11.8709C16.4288 11.6633 16.5826 11.4395 16.6974 11.2095C17.0812 10.4404 17.0992 9.56457 16.7475 8.77882C16.7241 8.72645 16.7025 8.68359 16.6996 8.68359V8.68359Z" fill="white"/>
<path d="M15.2072 7.27148L8.53125 13.6014C8.53128 13.6014 8.53385 13.6038 8.53386 13.6038C10.7563 11.4892 15.2156 7.27699 15.2156 7.27699C15.2139 7.27545 15.2107 7.27352 15.2072 7.27148V7.27148ZM15.2323 7.28401C15.2323 7.28401 8.5421 13.6077 8.54214 13.6076C9.03145 14.0702 9.53224 14.5425 10.0215 15.0051L16.7016 8.68288L16.6657 8.60962C16.3818 8.07463 15.9043 7.6164 15.3392 7.33687L15.2323 7.28401Z" fill="white"/>
<path d="M7.80236 12.9099L7.06836 12.2161C8.54159 10.8246 11.2744 8.21261 11.9041 7.6627C12.2207 7.42425 12.5434 7.25779 12.9074 7.14526C13.1213 7.07914 13.3014 7.04187 13.5407 7.01422C13.6885 6.99714 14.0561 6.99496 14.1986 7.01033C14.4397 7.03636 14.67 7.08385 14.8812 7.15109C14.9914 7.18618 15.2018 7.26643 15.2307 7.28402C12.85 9.56812 11.4887 10.8129 8.53635 13.6038L7.80236 12.9099Z" fill="white"/>
</svg>
