<svg width="24" height="24" viewBox="0 0 24 24" fill="none" xmlns="http://www.w3.org/2000/svg">
<rect x="0.585938" y="0.771484" width="22.8905" height="22.8904" rx="11.4452" fill="#FFE450"/>
<path d="M8.63991 11.2156C8.8268 11.8358 9.05304 12.4176 9.29895 12.9788C9.72192 13.9839 10.0072 14.5155 10.4015 15.1752C10.8835 15.9628 11.4156 16.8596 12.291 17.4405C12.9304 17.8638 13.7084 18.0804 14.456 18.0804C15.5094 18.0804 16.4143 17.6177 16.9956 17.0753C17.5661 16.5436 18.3047 15.5188 18.3047 13.5194C18.3047 12.8302 18.6097 12.2386 18.8359 11.766C18.8359 11.7562 18.8457 11.7365 18.8654 11.6971C18.9539 11.5002 19.0621 11.2442 19.0621 10.9882C19.0621 10.8012 19.013 10.5846 18.8851 10.3975C18.6884 10.0628 18.3342 9.94464 18.0087 9.94464C17.2513 9.94464 16.7291 10.4763 16.4635 11.0187L16.375 11.1959C16.2668 11.0384 16.1586 10.871 16.0701 10.7233C15.7946 10.2409 15.6372 9.916 15.4995 9.5016C15.3913 9.17671 15.3028 8.80259 15.2438 8.49649C15.0766 7.53076 14.8011 7.21572 14.3478 7.09757C14.0133 7.00896 13.6199 7.07788 13.3337 7.26494C13.1379 6.8219 12.8034 6.625 12.3599 6.625C11.7304 6.625 11.1589 7.0385 11.1589 7.73841C11.1589 7.82702 11.1688 7.91562 11.1786 8.02392C11.0999 8.00423 11.0114 7.99438 10.9229 7.99438C10.2442 7.99438 9.7416 8.46696 9.7416 9.10779C9.7416 9.25547 9.76127 9.42284 9.81045 9.61975C9.75143 9.6099 9.69241 9.6099 9.63339 9.6099C9.29895 9.62959 8.99402 9.75758 8.77672 10.0234C8.56121 10.2794 8.47268 10.6732 8.63991 11.2156Z" fill="#1F1F1A"/>
<path d="M9.20038 11.0393C9.11185 10.7538 9.12169 10.5372 9.22989 10.3993C9.33809 10.2713 9.48564 10.2123 9.6627 10.2024C9.96763 10.1926 10.0857 10.4092 10.2627 10.9703C10.3709 11.3248 10.5873 11.8376 10.7152 12.1231C10.8824 12.4677 11.1185 12.9304 11.2267 13.0889C11.3152 13.2267 11.3939 13.2661 11.4825 13.2661C11.6398 13.2661 11.7579 13.1775 11.7579 13.0199C11.7579 12.9313 11.6693 12.7837 11.6202 12.6951C11.5316 12.5277 11.3447 12.1929 11.2169 11.9074C11.0792 11.5924 10.9218 11.1986 10.7939 10.8433C10.7152 10.6365 10.6267 10.3411 10.5381 10.0458C10.4004 9.59291 10.3316 9.31724 10.3316 9.10959C10.3316 8.79455 10.5677 8.5878 10.9218 8.5878C11.1775 8.5878 11.3447 8.71578 11.4529 9.17851C11.5415 9.60186 11.6989 10.2919 11.9251 10.8334C12.0726 11.1878 12.289 11.6613 12.4169 11.8976C12.4956 12.0354 12.5841 12.1536 12.5841 12.2028C12.5841 12.2717 12.4563 12.38 12.3481 12.5277C12.2792 12.6163 12.2497 12.6754 12.2497 12.7443C12.2497 12.8034 12.289 12.8624 12.3481 12.9412C12.4071 13.0199 12.4661 13.0987 12.535 13.0987C12.5841 13.0987 12.6137 13.079 12.6432 13.0396C12.9481 12.6557 13.2825 12.3899 13.6671 12.1724C14.1195 11.9164 14.5827 11.7884 14.9467 11.7096C15.1238 11.6703 15.1729 11.6309 15.1729 11.5324C15.1729 11.4143 15.0844 11.3454 14.9664 11.3355C14.8778 11.3257 14.7991 11.3355 14.6614 11.3454C14.5631 11.3552 14.5139 11.306 14.4549 11.178C14.2778 10.8039 13.9335 10.1729 13.727 9.36557C13.6384 9.02099 13.5597 8.65671 13.5106 8.18325C13.4811 7.96665 13.5204 7.88789 13.6286 7.78944C13.7663 7.67129 14.0122 7.62207 14.1991 7.67129C14.4254 7.73036 14.5434 7.90758 14.6614 8.59764C14.7205 8.92253 14.8188 9.33604 14.9369 9.69136C15.0844 10.1442 15.2713 10.5193 15.5566 11.0214C15.7139 11.297 15.9107 11.5825 16.1172 11.8591C16.0779 11.9772 16.009 12.056 15.7828 12.2431C15.5566 12.4301 15.3303 12.627 15.1238 12.9913C14.9762 13.2571 14.9073 13.5525 14.9073 13.7494C14.9073 13.9365 14.9467 13.9758 15.0647 13.9758C15.2713 13.9758 15.4385 13.9365 15.4484 13.8478C15.4975 13.4934 15.5566 13.267 15.7533 13.0003C15.8713 12.8526 16.0779 12.6655 16.2451 12.5178C16.5599 12.2619 16.6681 12.1142 16.7763 11.7499C16.8255 11.5825 16.8845 11.425 16.9632 11.2773C17.1501 10.9328 17.4845 10.5389 18.0067 10.5389C18.174 10.5389 18.3117 10.5882 18.4002 10.726C18.4494 10.8048 18.4691 10.9131 18.4691 10.9918C18.4691 11.169 18.3412 11.4152 18.2822 11.5333C18.0658 11.996 17.7117 12.7058 17.7117 13.523C17.7117 15.3058 17.0821 16.1928 16.5894 16.6457C16.1074 17.0986 15.3491 17.4933 14.454 17.4933C13.8146 17.4933 13.1547 17.3062 12.6137 16.9518C11.8562 16.4497 11.3832 15.6612 10.9012 14.8735C10.5176 14.2336 10.252 13.7306 9.83797 12.7559C9.60457 12.1912 9.38728 11.6398 9.20038 11.0393Z" fill="#FFE450"/>
<path d="M11.7305 7.7386C11.7305 7.36448 12.0747 7.2168 12.36 7.2168C12.6649 7.2168 12.7731 7.36448 12.8518 7.67952C12.9207 7.9355 12.9502 8.17179 12.9797 8.44745C13.0191 8.72312 13.1568 9.35411 13.1961 9.51164C13.3437 10.0531 13.6388 10.694 13.9929 11.4619C13.7863 11.5308 13.5109 11.6489 13.324 11.7474C13.0879 11.8754 13.0387 11.8754 12.9404 11.6883C12.7338 11.3044 12.5862 11.0189 12.4584 10.6832C12.3502 10.4076 12.242 10.0925 12.1534 9.72734C12.0059 9.10708 11.9862 8.92987 11.8682 8.64346C11.7993 8.349 11.7305 7.98473 11.7305 7.7386Z" fill="#FFE450"/>
<path d="M8.20823 14.334C7.99988 14.4629 6.89551 15.042 6.64602 15.1342C6.46807 15.2004 6.27491 15.1843 6.16134 14.8478C6.02185 14.4316 6.21768 14.3331 6.49668 14.2248C6.74349 14.1291 7.76738 13.7585 8.00524 13.6941C8.17247 13.6493 8.28871 13.7057 8.3692 13.9071C8.45772 14.1282 8.39692 14.2168 8.20823 14.334Z" fill="#1F1F1A"/>
<path d="M7.29748 11.9869C7.00059 11.995 5.76745 11.9422 5.48577 11.9145C5.24075 11.8903 5.14149 11.782 5.16832 11.4267C5.19694 11.0454 5.34538 11.0221 5.58592 11.0454C5.86492 11.0722 7.15708 11.2826 7.36276 11.3461C7.57558 11.4123 7.60509 11.509 7.57916 11.6952C7.54607 11.9368 7.43698 11.9825 7.29748 11.9869Z" fill="#1F1F1A"/>
<path d="M7.451 9.48813C7.11119 9.38073 6.1025 8.76943 5.8396 8.61191C5.60174 8.4687 5.57133 8.33982 5.73676 8.02567C5.88342 7.74821 6.04617 7.69988 6.28761 7.82518C6.5675 7.97107 7.55563 8.74079 7.74431 8.89294C7.92673 9.03973 7.90169 9.1158 7.80601 9.30465C7.71033 9.4935 7.6209 9.54183 7.451 9.48813Z" fill="#1F1F1A"/>
</svg>
