<svg width="23" height="23" viewBox="0 0 23 23" fill="none" xmlns="http://www.w3.org/2000/svg">
<rect width="22.8905" height="22.8904" rx="11.4452" fill="#5865F2"/>
<path d="M15.6197 7.69196C16.9685 9.68911 17.6346 11.9418 17.3856 14.5352C17.3845 14.5462 17.3789 14.5563 17.3699 14.5629C16.3485 15.3182 15.3589 15.7766 14.3831 16.0806C14.3755 16.0829 14.3674 16.0828 14.3599 16.0802C14.3524 16.0777 14.3458 16.0728 14.3412 16.0663C14.1158 15.7505 13.911 15.4175 13.7315 15.0678C13.7212 15.0472 13.7306 15.0224 13.7518 15.0142C14.0771 14.8908 14.3864 14.7429 14.684 14.5677C14.7074 14.5539 14.7089 14.5201 14.6872 14.5038C14.6241 14.4566 14.5615 14.407 14.5017 14.3574C14.4905 14.3482 14.4754 14.3464 14.4627 14.3526C12.5311 15.2509 10.4151 15.2509 8.4607 14.3526C8.44801 14.3469 8.43293 14.3488 8.42203 14.3578C8.36232 14.4075 8.29962 14.4566 8.23707 14.5038C8.21542 14.5201 8.21721 14.5539 8.2408 14.5677C8.53832 14.7396 8.84764 14.8908 9.17249 15.0148C9.19354 15.023 9.20354 15.0472 9.19309 15.0678C9.01753 15.4179 8.81271 15.7509 8.58311 16.0668C8.57311 16.0796 8.55669 16.0854 8.54116 16.0806C7.57006 15.7766 6.58045 15.3182 5.55904 14.5629C5.55053 14.5563 5.54441 14.5458 5.54351 14.5348C5.33541 12.2915 5.75953 10.0202 7.30776 7.69151C7.3115 7.68535 7.31717 7.68054 7.32374 7.67768C8.08554 7.32558 8.90169 7.06654 9.7547 6.9186C9.77023 6.9162 9.78575 6.92341 9.79382 6.93724C9.89921 7.12517 10.0197 7.36617 10.1012 7.56312C11.0003 7.42481 11.9135 7.42481 12.8315 7.56312C12.913 7.37038 13.0293 7.12517 13.1342 6.93724C13.138 6.93038 13.1438 6.92489 13.1508 6.92154C13.1578 6.91819 13.1657 6.91716 13.1733 6.9186C14.0268 7.06699 14.8429 7.32603 15.6042 7.67768C15.6109 7.68054 15.6164 7.68535 15.6197 7.69196ZM10.5583 11.9572C10.5677 11.294 10.0876 10.7453 9.48494 10.7453C8.8872 10.7453 8.41173 11.2892 8.41173 11.9572C8.41173 12.625 8.89661 13.1689 9.48494 13.1689C10.0828 13.1689 10.5583 12.625 10.5583 11.9572ZM14.5266 11.9572C14.536 11.294 14.0559 10.7453 13.4534 10.7453C12.8555 10.7453 12.38 11.2892 12.38 11.9572C12.38 12.625 12.8649 13.1689 13.4534 13.1689C14.0559 13.1689 14.5266 12.625 14.5266 11.9572Z" fill="white"/>
</svg>
