<svg width="23" height="23" viewBox="0 0 23 23" fill="none" xmlns="http://www.w3.org/2000/svg">
<rect width="22.8905" height="22.8904" rx="11.4452" fill="#F3F2F2"/>
<g clip-path="url(#clip0_3755_1384)">
<path d="M18.2341 11.1795C18.2341 10.6995 18.2021 10.2195 18.1061 9.77148H11.1621V12.5555H15.1301C14.9381 13.4515 14.4261 14.2515 13.6581 14.7635V16.6195H16.0261C17.4341 15.3075 18.2341 13.4195 18.2341 11.1795Z" fill="#4285F4"/>
<path d="M11.1631 18.3797C13.1471 18.3797 14.8111 17.7077 16.0591 16.5877L13.6591 14.7637C12.9871 15.2117 12.1551 15.4677 11.1631 15.4677C9.24306 15.4677 7.61106 14.1557 7.00306 12.4277H4.53906V14.3157C5.78706 16.7157 8.28306 18.3797 11.1631 18.3797Z" fill="#34A853"/>
<path d="M7.00228 12.3954C6.84228 11.9474 6.77828 11.4674 6.77828 10.9874C6.77828 10.5074 6.87428 10.0274 7.00228 9.57941V7.69141H4.53828C4.02628 8.68341 3.73828 9.80341 3.73828 11.0194C3.73828 12.2034 4.02628 13.3234 4.53828 14.3474L7.00228 12.3954Z" fill="#FBBC05"/>
<path d="M11.1616 6.53895C12.2496 6.53895 13.2096 6.92295 14.0096 7.65895L16.1216 5.54695C14.8416 4.36295 13.1776 3.62695 11.1936 3.62695C8.31356 3.62695 5.81756 5.29095 4.60156 7.69095L7.06556 9.57895C7.60956 7.81895 9.24156 6.53895 11.1616 6.53895Z" fill="#EA4335"/>
</g>
<defs>
<clipPath id="clip0_3755_1384">
<rect width="16" height="16" fill="white" transform="translate(3 3)"/>
</clipPath>
</defs>
</svg>
