<svg width="23" height="23" viewBox="0 0 23 23" fill="none" xmlns="http://www.w3.org/2000/svg">
<rect width="22.8905" height="22.8904" rx="11.4452" fill="url(#paint0_linear_3755_1307)"/>
<path d="M9.54033 11.4748C9.54033 10.4204 10.3946 9.56538 11.4487 9.56538C12.5028 9.56538 13.3575 10.4204 13.3575 11.4748C13.3575 12.5292 12.5028 13.3842 11.4487 13.3842C10.3946 13.3842 9.54033 12.5292 9.54033 11.4748ZM8.50845 11.4748C8.50845 13.0991 9.8248 14.4159 11.4487 14.4159C13.0726 14.4159 14.389 13.0991 14.389 11.4748C14.389 9.85039 13.0726 8.53366 11.4487 8.53366C9.8248 8.53366 8.50845 9.85039 8.50845 11.4748ZM13.8182 8.41705C13.8182 8.55299 13.8584 8.68589 13.9339 8.79895C14.0093 8.91201 14.1166 9.00015 14.2422 9.05222C14.3677 9.10429 14.5058 9.11796 14.6391 9.09149C14.7724 9.06503 14.8949 8.99961 14.991 8.90353C15.0872 8.80744 15.1527 8.685 15.1792 8.55168C15.2058 8.41837 15.1922 8.28016 15.1403 8.15455C15.0883 8.02894 15.0003 7.92156 14.8873 7.84599C14.7744 7.77042 14.6415 7.73005 14.5056 7.73H14.5054C14.3232 7.73008 14.1485 7.80249 14.0197 7.93131C13.8908 8.06013 13.8184 8.23483 13.8182 8.41705ZM9.13538 16.137C8.57712 16.1115 8.27368 16.0185 8.07203 15.9399C7.80469 15.8358 7.61395 15.7118 7.4134 15.5115C7.21285 15.3112 7.08871 15.1206 6.98509 14.8531C6.90648 14.6515 6.81349 14.3479 6.78811 13.7895C6.76035 13.1857 6.75481 13.0044 6.75481 11.4748C6.75481 9.94524 6.76081 9.76439 6.78811 9.16014C6.81354 8.60171 6.90722 8.29869 6.98509 8.09648C7.08917 7.82907 7.21312 7.63826 7.4134 7.43766C7.61367 7.23705 7.80424 7.11287 8.07203 7.00923C8.27359 6.9306 8.57712 6.83758 9.13538 6.81219C9.73895 6.78443 9.92026 6.77888 11.4487 6.77888C12.9771 6.77888 13.1586 6.78488 13.7627 6.81219C14.321 6.83762 14.6239 6.93133 14.8261 7.00923C15.0934 7.11287 15.2842 7.23733 15.4847 7.43766C15.6853 7.63799 15.8089 7.82907 15.913 8.09648C15.9916 8.2981 16.0846 8.60171 16.11 9.16014C16.1377 9.76439 16.1433 9.94524 16.1433 11.4748C16.1433 13.0044 16.1377 13.1852 16.11 13.7895C16.0846 14.3479 15.9911 14.6514 15.913 14.8531C15.8089 15.1206 15.685 15.3114 15.4847 15.5115C15.2844 15.7117 15.0934 15.8358 14.8261 15.9399C14.6245 16.0186 14.321 16.1116 13.7627 16.137C13.1591 16.1647 12.9778 16.1703 11.4487 16.1703C9.91958 16.1703 9.73877 16.1647 9.13538 16.137ZM9.08797 5.78176C8.4784 5.80953 8.06186 5.90621 7.6981 6.0478C7.32137 6.19401 7.00245 6.39018 6.68376 6.70845C6.36507 7.02673 6.16947 7.34624 6.0233 7.72308C5.88175 8.08718 5.78509 8.50361 5.75733 9.11335C5.72912 9.72406 5.72266 9.91931 5.72266 11.4748C5.72266 13.0302 5.72912 13.2255 5.75733 13.8362C5.78509 14.446 5.88175 14.8624 6.0233 15.2265C6.16947 15.6031 6.36512 15.9229 6.68376 16.2411C7.00241 16.5592 7.32137 16.7551 7.6981 16.9017C8.06255 17.0433 8.4784 17.14 9.08797 17.1678C9.69883 17.1955 9.89369 17.2025 11.4487 17.2025C13.0037 17.2025 13.1989 17.196 13.8094 17.1678C14.4191 17.14 14.8353 17.0433 15.1993 16.9017C15.5758 16.7551 15.895 16.5594 16.2136 16.2411C16.5323 15.9228 16.7275 15.6031 16.8741 15.2265C17.0157 14.8624 17.1128 14.4459 17.1401 13.8362C17.1678 13.225 17.1743 13.0302 17.1743 11.4748C17.1743 9.91931 17.1678 9.72406 17.1401 9.11335C17.1123 8.50356 17.0157 8.08695 16.8741 7.72308C16.7275 7.34647 16.5318 7.02723 16.2136 6.70845C15.8955 6.38967 15.5758 6.19401 15.1998 6.0478C14.8353 5.90621 14.419 5.80907 13.8099 5.78176C13.1994 5.75399 13.0042 5.74707 11.4492 5.74707C9.89415 5.74707 9.69883 5.75353 9.08797 5.78176Z" fill="white"/>
<defs>
<linearGradient id="paint0_linear_3755_1307" x1="22.4505" y1="22.8904" x2="-0.439933" y2="-2.1597e-05" gradientUnits="userSpaceOnUse">
<stop stop-color="#FBE18A"/>
<stop offset="0.21" stop-color="#FCBB45"/>
<stop offset="0.38" stop-color="#F75274"/>
<stop offset="0.52" stop-color="#D53692"/>
<stop offset="0.74" stop-color="#8F39CE"/>
<stop offset="1" stop-color="#5B4FE9"/>
</linearGradient>
</defs>
</svg>
