<svg width="23" height="23" viewBox="0 0 23 23" fill="none" xmlns="http://www.w3.org/2000/svg">
<rect width="22.8905" height="22.8904" rx="11.4452" fill="#006699"/>
<path d="M8.81119 16.0821V9.8987H6.75775V16.0821H8.8114H8.81119ZM7.7849 9.05461C8.50083 9.05461 8.94654 8.5798 8.94654 7.98643C8.93314 7.37953 8.50083 6.91797 7.79852 6.91797C7.09572 6.91797 6.63672 7.37953 6.63672 7.98637C6.63672 8.57975 7.08227 9.05456 7.77145 9.05456H7.78474L7.7849 9.05461ZM9.94779 16.0821H12.0011V12.6294C12.0011 12.4448 12.0145 12.2598 12.0687 12.1279C12.2171 11.7586 12.5549 11.3762 13.1223 11.3762C13.8652 11.3762 14.1625 11.9432 14.1625 12.7745V16.0821H16.2157V12.5367C16.2157 10.6375 15.2028 9.75374 13.8519 9.75374C12.7443 9.75374 12.2578 10.3734 11.9876 10.7954H12.0012V9.89892H9.9479C9.9747 10.479 9.94774 16.0823 9.94774 16.0823L9.94779 16.0821Z" fill="white"/>
</svg>
