<svg width="23" height="23" viewBox="0 0 23 23" fill="none" xmlns="http://www.w3.org/2000/svg">
<rect width="22.8905" height="22.8904" rx="11.4452" fill="#F7931E"/>
<path d="M10.7807 14.4403C9.67072 14.3203 8.65072 14.0503 7.78072 13.3603C7.66072 13.2703 7.57072 13.1803 7.45072 13.0903C7.06072 12.7303 7.03072 12.3103 7.33072 11.8903C7.60072 11.5303 8.02072 11.4103 8.47072 11.6503C8.56072 11.6803 8.65072 11.7403 8.71072 11.8003C10.3307 12.9103 12.5507 12.9403 14.1407 11.8603C14.2907 11.7403 14.4707 11.6503 14.6807 11.5903C15.0707 11.5003 15.4307 11.6203 15.6407 11.9803C15.8807 12.3703 15.8807 12.7303 15.5807 13.0303C15.1307 13.4803 14.5907 13.8103 13.9907 14.0503C13.4207 14.2603 12.8207 14.3803 12.1907 14.4403C12.2807 14.5303 12.3407 14.5903 12.3707 14.6503C13.2107 15.4903 14.0507 16.3303 14.8607 17.1703C15.1307 17.4703 15.1907 17.8003 15.0407 18.1303C14.8607 18.4903 14.5007 18.7303 14.1107 18.7003C13.8707 18.6703 13.6907 18.5803 13.5107 18.4003C12.8807 17.7703 12.2507 17.1403 11.6207 16.5103C11.4407 16.3303 11.3507 16.3603 11.2007 16.5103C10.5707 17.1703 9.94072 17.8003 9.28072 18.4303C8.98072 18.7303 8.65072 18.7603 8.32072 18.6103C7.96072 18.4303 7.72072 18.0703 7.75072 17.7103C7.75072 17.4703 7.87072 17.2603 8.05072 17.1103C8.86072 16.3003 9.70072 15.4603 10.5107 14.6503C10.6607 14.5903 10.7207 14.5303 10.7807 14.4403Z" fill="white"/>
<path d="M11.4698 11.5895C9.45984 11.5895 7.83984 9.93953 7.83984 7.92953C7.83984 5.91953 9.48984 4.26953 11.4998 4.26953C13.5098 4.26953 15.1598 5.91953 15.1298 7.95953C15.1298 9.96953 13.4798 11.5895 11.4698 11.5895ZM13.2998 7.92953C13.2998 6.93953 12.4898 6.12953 11.4998 6.12953C10.5098 6.12953 9.69984 6.93953 9.69984 7.92953C9.69984 8.91953 10.5098 9.69953 11.4998 9.69953C12.4898 9.72953 13.2998 8.91953 13.2998 7.92953Z" fill="white"/>
</svg>
