<svg width="23" height="23" viewBox="0 0 23 23" fill="none" xmlns="http://www.w3.org/2000/svg">
<rect width="22.8905" height="22.8904" rx="11.4452" fill="#FF4500"/>
<path d="M17.1678 11.5494C17.1695 11.6661 17.1549 11.7825 17.1239 11.8952C17.093 12.0078 17.0462 12.1157 16.9847 12.2154C16.9235 12.315 16.8483 12.4057 16.7616 12.4847C16.6748 12.5637 16.5773 12.6301 16.4718 12.6821C16.4742 12.7131 16.4761 12.7444 16.4772 12.7757C16.4798 12.8382 16.4798 12.9007 16.4772 12.9631C16.4761 12.9944 16.4742 13.0257 16.4718 13.0568C16.4718 14.9644 14.2293 16.5143 11.4626 16.5143C8.69598 16.5143 6.45345 14.9644 6.45345 13.0568C6.45108 13.0257 6.44915 12.9944 6.44808 12.9631C6.44549 12.9007 6.44549 12.8382 6.44808 12.7757C6.44915 12.7444 6.45108 12.7131 6.45345 12.6821C6.28821 12.6068 6.14145 12.4968 6.02333 12.3598C5.9052 12.2227 5.81852 12.0619 5.7693 11.8884C5.72016 11.7148 5.70969 11.5326 5.73863 11.3546C5.76756 11.1766 5.83519 11.007 5.93685 10.8575C6.03841 10.708 6.17158 10.5822 6.32711 10.4888C6.48263 10.3954 6.6568 10.3367 6.83751 10.3167C7.01825 10.2966 7.20123 10.3157 7.37378 10.3727C7.54632 10.4297 7.7043 10.5232 7.83677 10.6467C8.08268 10.4815 8.34033 10.3341 8.60769 10.2058C8.87512 10.0776 9.15157 9.9686 9.43489 9.88003C9.71822 9.79146 10.0078 9.72354 10.301 9.67649C10.5942 9.62944 10.8906 9.60368 11.1877 9.59921L11.8235 6.64409C11.8306 6.60982 11.8445 6.57746 11.8645 6.5485C11.8843 6.51976 11.9098 6.49506 11.9393 6.47611C11.9689 6.45716 12.002 6.44418 12.0368 6.43779C12.0714 6.43162 12.107 6.43225 12.1414 6.43971L14.2465 6.857C14.4589 6.49527 14.9048 6.34028 15.2986 6.49102C15.6923 6.64175 15.9174 7.05372 15.8293 7.46292C15.7415 7.87213 15.3664 8.15742 14.945 8.13592C14.5233 8.11441 14.1799 7.7925 14.1348 7.37649L12.2961 6.99326L11.7376 9.6503C12.031 9.65648 12.3238 9.68373 12.6133 9.73163C13.1932 9.82743 13.756 10.0057 14.2845 10.2609C14.5484 10.3882 14.8028 10.5342 15.0455 10.6978C15.2201 10.5317 15.4394 10.4192 15.677 10.374C15.9147 10.3286 16.1605 10.3523 16.3848 10.4423C16.6091 10.5323 16.8024 10.6847 16.9414 10.8811C17.0803 11.0775 17.1589 11.3097 17.1678 11.5494ZM8.64099 12.727C8.68438 12.8302 8.74753 12.9241 8.82743 13.0031C8.90713 13.0823 9.00185 13.1449 9.10603 13.1879C9.21031 13.2307 9.32205 13.2527 9.43489 13.2526C9.78244 13.2526 10.0956 13.0451 10.2288 12.727C10.3618 12.4087 10.2881 12.0425 10.0424 11.7989C9.79662 11.5554 9.42716 11.4823 9.10603 11.6141C8.78512 11.7461 8.57569 12.0566 8.57569 12.401C8.57569 12.5128 8.59781 12.6235 8.64099 12.727ZM13.5621 14.7713C13.6061 14.7287 13.6313 14.6706 13.6321 14.6097C13.633 14.5486 13.6091 14.4898 13.5662 14.4462C13.5232 14.4025 13.4646 14.3776 13.4031 14.3768C13.3415 14.3759 13.2822 14.3996 13.2326 14.4364C13.1034 14.5282 12.9666 14.6091 12.8236 14.678C12.6806 14.747 12.532 14.8039 12.3794 14.8482C12.2269 14.8922 12.0707 14.9235 11.9128 14.9416C11.7548 14.9597 11.5956 14.9644 11.4368 14.9559C11.2783 14.9629 11.1194 14.9565 10.9619 14.9369C10.8044 14.9175 10.6489 14.8848 10.4971 14.839C10.345 14.7934 10.1974 14.7351 10.0555 14.6648C9.91347 14.5946 9.77772 14.5124 9.64969 14.4194C9.60523 14.3832 9.54874 14.3646 9.49117 14.3674C9.4336 14.3702 9.37926 14.3942 9.33845 14.4345C9.29785 14.4749 9.27358 14.5288 9.27079 14.5859C9.26799 14.6429 9.28668 14.6989 9.3232 14.743C9.4742 14.8558 9.63466 14.9555 9.80285 15.041C9.97104 15.1266 10.1465 15.1975 10.327 15.2533C10.5074 15.3091 10.6923 15.3493 10.8799 15.3738C11.0674 15.3981 11.2566 15.4064 11.4454 15.3987C11.6342 15.4064 11.8235 15.3981 12.011 15.3738C12.3866 15.3248 12.7509 15.2123 13.088 15.041C13.2562 14.9555 13.4167 14.8558 13.5677 14.743L13.5621 14.7713ZM13.4044 13.3208C13.5209 13.3221 13.6364 13.2997 13.744 13.2554C13.8516 13.2109 13.949 13.1453 14.0301 13.0625C14.1113 12.9797 14.1745 12.8813 14.2162 12.7734C14.2579 12.6656 14.2769 12.5505 14.2722 12.4351C14.2722 12.0906 14.0628 11.7802 13.7419 11.6482C13.4208 11.5164 13.0513 11.5894 12.8056 11.833C12.5598 12.0766 12.4862 12.4428 12.6191 12.7611C12.7523 13.0791 13.0655 13.2867 13.413 13.2867L13.4044 13.3208Z" fill="white"/>
</svg>
