<svg width="23" height="23" viewBox="0 0 23 23" fill="none" xmlns="http://www.w3.org/2000/svg">
<path d="M0.253906 11.5009C0.253906 17.7109 5.29091 22.7479 11.5009 22.7479C17.7109 22.7479 22.7479 17.7109 22.7479 11.5009C22.7479 5.29091 17.7109 0.253906 11.5009 0.253906C5.29091 0.253906 0.276906 5.26791 0.253906 11.4549C0.253906 11.4779 0.253906 11.4779 0.253906 11.5009Z" fill="#1976D2"/>
<path d="M16.88 15.1136C15.9836 16.095 14.4007 17.6344 14.3244 17.6921C14.1146 17.8845 13.8476 18 13.5806 18C13.2945 18 13.0085 17.8845 12.7987 17.6536C12.3982 17.211 12.3982 16.5375 12.8368 16.1142C12.8559 16.0757 14.4388 14.5748 15.278 13.6511C15.6594 13.2085 15.8692 12.6313 15.8311 12.054C15.7929 11.419 15.4878 10.8224 14.9919 10.4376C14.3244 9.87953 13.0466 9.74483 12.2456 10.4568C11.7688 10.8994 11.1967 11.5152 11.1585 11.5537C10.739 11.977 10.0524 11.977 9.63281 11.5344C9.2323 11.1303 9.21323 10.4953 9.57559 10.072C9.61373 10.0335 10.2431 9.34073 10.7962 8.84042C12.3219 7.43569 14.8393 7.41645 16.4032 8.78269C17.3377 9.57164 17.8908 10.707 17.9862 11.9193C18.0815 13.0931 17.681 14.2476 16.88 15.1136ZM10.3575 15.1905C9.34673 15.1905 8.35501 14.8442 7.59215 14.1899C6.65764 13.401 6.08549 12.2656 6.0092 11.0533C5.93292 9.87953 6.33342 8.72496 7.11536 7.85903C8.01172 6.87765 9.59466 5.33822 9.67095 5.2805C10.1096 4.8764 10.7962 4.91488 11.1967 5.35747C11.5781 5.78081 11.5781 6.43506 11.1776 6.85841C11.1395 6.87765 9.57559 8.39783 8.73644 9.32149C8.35501 9.76407 8.14522 10.3414 8.18336 10.9186C8.22151 11.5537 8.52665 12.1502 9.02251 12.535C9.69002 13.0931 10.9678 13.2278 11.7688 12.5158C12.2456 12.0732 12.8178 11.4574 12.8559 11.419C13.2564 10.9764 13.943 10.9571 14.3816 11.3612C14.8203 11.7653 14.8393 12.4581 14.4388 12.9007C14.4198 12.9391 13.7713 13.6319 13.2183 14.1322C12.4173 14.8249 11.4065 15.2098 10.3575 15.1905Z" fill="white"/>
</svg>
