<svg width="23" height="23" viewBox="0 0 23 23" fill="none" xmlns="http://www.w3.org/2000/svg">
<rect width="22.8905" height="22.8904" rx="11.4452" fill="url(#paint0_linear_3755_1379)"/>
<path d="M3.6125 12.2579C3.57963 12.2579 3.55342 12.2833 3.54926 12.3199L3.43359 13.199L3.54926 14.0627C3.54968 14.0989 3.57963 14.1243 3.6125 14.1243C3.64454 14.1243 3.67033 14.0994 3.67574 14.0627L3.81263 13.1986L3.67574 12.3195C3.67075 12.2833 3.64454 12.2579 3.6125 12.2579ZM4.26281 11.7777C4.2574 11.7398 4.23036 11.714 4.19707 11.714C4.16379 11.714 4.13591 11.7411 4.13133 11.7777C4.13133 11.7778 3.97573 13.199 3.97573 13.199L4.13133 14.5887C4.13591 14.6262 4.16337 14.6528 4.19707 14.6528C4.23036 14.6528 4.2574 14.6266 4.26281 14.5891L4.43964 13.199L4.26281 11.7777ZM6.71176 10.4668C6.64811 10.4668 6.59527 10.5189 6.59235 10.5855L6.46837 13.2003L6.59235 14.8902C6.59568 14.9564 6.64811 15.0084 6.71176 15.0084C6.77501 15.0084 6.82785 14.9564 6.83159 14.8902V14.8902L6.97139 13.2003L6.83159 10.5855C6.82785 10.5193 6.77542 10.4669 6.71176 10.4669V10.4668ZM5.44402 11.3755C5.39492 11.3755 5.35498 11.4147 5.35123 11.4667L5.21185 13.1991L5.35123 14.8731C5.35498 14.9252 5.39492 14.9643 5.44402 14.9643C5.49228 14.9643 5.53264 14.9252 5.5368 14.8731L5.69532 13.1991L5.5368 11.4663C5.53638 11.4142 5.4927 11.3751 5.44402 11.3751V11.3755ZM7.9999 15.0072C8.07895 15.0072 8.14344 14.9435 8.14635 14.8619L8.26784 13.2007L8.14677 9.71977C8.14344 9.63815 8.07937 9.57444 8.00032 9.57444C7.92043 9.57444 7.85594 9.63857 7.85345 9.72019L7.74568 13.2007L7.85345 14.8627C7.85594 14.9439 7.92043 15.0076 7.9999 15.0076V15.0072ZM10.6369 15.0151C10.7459 15.0151 10.8354 14.9256 10.8375 14.8153V14.8165V14.8153L10.9223 13.2016L10.8375 9.18132C10.8354 9.07138 10.7455 8.98143 10.6369 8.98143C10.5279 8.98143 10.438 9.07097 10.4364 9.18174L10.3606 13.2007C10.3606 13.2032 10.4364 14.8169 10.4364 14.8169C10.438 14.926 10.5283 15.016 10.6369 15.016V15.0151ZM9.30842 15.0097C9.40329 15.0097 9.47942 14.9335 9.48192 14.8365V14.8377L9.5851 13.2016L9.48192 9.6952C9.47942 9.59817 9.40287 9.52238 9.30842 9.52238C9.21314 9.52238 9.13659 9.59817 9.13451 9.6952L9.04297 13.2016L9.13492 14.8373C9.137 14.9331 9.21314 15.0093 9.30884 15.0093L9.30842 15.0097ZM6.07602 14.9939C6.13219 14.9939 6.17795 14.9489 6.18211 14.8894L6.33148 13.1995L6.18211 11.5916C6.1817 11.5321 6.1326 11.4875 6.07602 11.4875C6.01902 11.4875 5.97325 11.5325 5.96992 11.5925L5.83845 13.1995L5.96992 14.8894C5.97367 14.9489 6.01902 14.9939 6.07602 14.9939ZM4.8195 14.9015C4.86069 14.9015 4.89398 14.869 4.89856 14.824L5.06623 13.1991L4.89856 11.5129C4.89356 11.468 4.86028 11.4355 4.81909 11.4355C4.77748 11.4355 4.7442 11.468 4.74004 11.5129L4.59233 13.1991L4.74004 14.8236C4.74045 14.8686 4.77748 14.9015 4.81909 14.9015H4.8195ZM9.97121 9.63648C9.86844 9.63648 9.78606 9.71852 9.78398 9.82305L9.70035 13.2012L9.78398 14.8269C9.78606 14.9302 9.86844 15.0122 9.97121 15.0122C10.074 15.0122 10.1559 14.9306 10.1584 14.8257V14.8269L10.2525 13.2012L10.1584 9.82221C10.1559 9.71769 10.074 9.63607 9.97121 9.63607V9.63648ZM7.35458 15.0106C7.42573 15.0106 7.4844 14.9527 7.48772 14.8786L7.61837 13.2003L7.48772 9.98754C7.48398 9.91341 7.42573 9.85553 7.35458 9.85553C7.28302 9.85553 7.22436 9.91341 7.22144 9.98754L7.10578 13.2003L7.22144 14.8786C7.22436 14.9518 7.28302 15.0097 7.35458 15.0097V15.0106ZM8.81289 14.8515V14.8507L8.92523 13.1999L8.81289 9.6015C8.81039 9.51197 8.73966 9.44201 8.6527 9.44201C8.56533 9.44201 8.49502 9.51197 8.49252 9.6015L8.39308 13.1995L8.49294 14.8511C8.49543 14.9398 8.56575 15.0093 8.65312 15.0093C8.74008 15.0093 8.81039 14.9394 8.81331 14.8502L8.81289 14.8515ZM17.3006 11.1257C17.0343 11.1257 16.7801 11.1798 16.5484 11.2768C16.3936 9.52238 14.924 8.14648 13.1312 8.14648C12.6927 8.14648 12.265 8.2331 11.8872 8.37927C11.7403 8.43591 11.7012 8.49462 11.7 8.60831V14.7861C11.7016 14.9052 11.794 15.0043 11.9101 15.0164C11.9151 15.0164 17.2661 15.0197 17.3006 15.0197C18.3745 15.0197 19.2453 14.1481 19.2453 13.0733C19.2453 11.9981 18.3749 11.1265 17.3006 11.1265V11.1257ZM11.3022 8.6029C11.1853 8.6029 11.0896 8.69868 11.0879 8.81694L11.0001 13.2016L11.0879 14.7928C11.0896 14.909 11.1853 15.0047 11.3022 15.0047C11.4187 15.0047 11.5144 14.909 11.5165 14.7911V14.7932L11.6118 13.2016L11.5165 8.81653C11.5148 8.69909 11.4187 8.6029 11.3022 8.6029Z" fill="white"/>
<defs>
<linearGradient id="paint0_linear_3755_1379" x1="11.7361" y1="22.6964" x2="11.2511" y2="-0.0968079" gradientUnits="userSpaceOnUse">
<stop stop-color="#FF433A"/>
<stop offset="1" stop-color="#FF9436"/>
</linearGradient>
</defs>
</svg>
