<svg width="23" height="23" viewBox="0 0 23 23" fill="none" xmlns="http://www.w3.org/2000/svg">
<rect y="-0.000976562" width="22.8905" height="22.8904" rx="11.4452" fill="#34AADF"/>
<path d="M6.36821 11.0388C6.36821 11.0388 11.0252 9.07732 12.6403 8.38665C13.2595 8.1104 15.3592 7.22634 15.3592 7.22634C15.3592 7.22634 16.3283 6.83959 16.2475 7.77887C16.2206 8.16565 16.0052 9.51931 15.7899 10.9835C15.4668 13.0555 15.1169 15.3208 15.1169 15.3208C15.1169 15.3208 15.063 15.9563 14.6054 16.0668C14.1478 16.1773 13.3941 15.68 13.2595 15.5695C13.1518 15.4866 11.2405 14.2434 10.5407 13.6356C10.3522 13.4699 10.1369 13.1384 10.5676 12.7516C11.5367 11.8399 12.6942 10.7073 13.3941 9.98899C13.7171 9.65746 14.0401 8.88393 12.6942 9.8232C10.7829 11.1769 8.8986 12.4477 8.8986 12.4477C8.8986 12.4477 8.46788 12.724 7.66032 12.4753C6.85272 12.2267 5.91056 11.8952 5.91056 11.8952C5.91056 11.8952 5.26454 11.4808 6.36821 11.0388Z" fill="white"/>
</svg>
