<svg width="23" height="23" viewBox="0 0 23 23" fill="none" xmlns="http://www.w3.org/2000/svg">
<rect width="22.8905" height="22.8904" rx="11.4452" fill="black"/>
<path fill-rule="evenodd" clip-rule="evenodd" d="M13.9185 9.88896C14.6852 10.4345 15.6033 10.7259 16.5439 10.7224V8.85653C16.359 8.85704 16.1746 8.83722 15.994 8.79744V10.2839C15.0512 10.2856 14.1318 9.99078 13.3655 9.44116V13.2786C13.3632 13.9083 13.1906 14.5256 12.8662 15.0651C12.5417 15.6046 12.0775 16.0461 11.5226 16.3429C10.9678 16.6397 10.343 16.7807 9.71456 16.7509C9.08613 16.7211 8.47748 16.5217 7.95312 16.1737C8.43814 16.6649 9.05786 17.001 9.73383 17.1394C10.4098 17.2778 11.1116 17.2123 11.7504 16.9513C12.3891 16.6902 12.9361 16.2453 13.3221 15.6729C13.708 15.1005 13.9156 14.4263 13.9185 13.7357V9.88896ZM14.5989 7.9858C14.2091 7.56285 13.9699 7.02275 13.9185 6.44959V6.20703H13.3965C13.4611 6.57136 13.6015 6.91802 13.8086 7.22448C14.0158 7.53094 14.2851 7.79033 14.5989 7.9858ZM9.16174 14.6966C8.98082 14.4598 8.86996 14.177 8.84175 13.8802C8.81355 13.5835 8.86914 13.2848 9.0022 13.0181C9.13526 12.7514 9.34044 12.5274 9.5944 12.3717C9.84836 12.216 10.1409 12.1348 10.4387 12.1373C10.6031 12.1372 10.7666 12.1624 10.9234 12.2119V10.2839C10.7401 10.2596 10.5552 10.2492 10.3704 10.2528V11.7517C9.98854 11.6309 9.57529 11.6584 9.21279 11.8286C8.8503 11.9989 8.56512 12.2995 8.41397 12.6706C8.26283 13.0418 8.2568 13.4563 8.39708 13.8317C8.53736 14.2071 8.81367 14.5158 9.17106 14.6966H9.16174Z" fill="#EE1D52"/>
<path fill-rule="evenodd" clip-rule="evenodd" d="M13.3647 9.42872C14.131 9.97834 15.0505 10.2731 15.9932 10.2715V8.785C15.4561 8.67133 14.9682 8.39179 14.5982 7.9858C14.2843 7.79033 14.015 7.53094 13.8079 7.22448C13.6007 6.91802 13.4603 6.57136 13.3958 6.20703H12.0225V13.7357C12.0212 14.0689 11.9157 14.3934 11.7208 14.6636C11.5258 14.9337 11.2513 15.136 10.9356 15.242C10.62 15.348 10.2791 15.3524 9.96078 15.2546C9.6425 15.1568 9.36281 14.9616 9.16098 14.6966C8.84113 14.5351 8.58498 14.2704 8.43385 13.9453C8.28273 13.6202 8.24544 13.2536 8.32802 12.9046C8.4106 12.5557 8.60822 12.2448 8.88899 12.0221C9.16977 11.7994 9.51733 11.6778 9.87559 11.6771C10.04 11.6776 10.2033 11.7027 10.3603 11.7517V10.2528C9.68221 10.2691 9.02364 10.4832 8.46543 10.8688C7.90722 11.2544 7.47364 11.7948 7.21794 12.4236C6.96223 13.0523 6.89551 13.7422 7.02598 14.4084C7.15645 15.0745 7.47842 15.6881 7.95237 16.1737C8.47683 16.5242 9.08644 16.7257 9.71628 16.7568C10.3461 16.7879 10.9726 16.6474 11.529 16.3503C12.0853 16.0532 12.5508 15.6106 12.8757 15.0697C13.2006 14.5287 13.3728 13.9097 13.374 13.2786L13.3647 9.42872Z" fill="white"/>
<path fill-rule="evenodd" clip-rule="evenodd" d="M15.9929 8.7843V8.38315C15.4996 8.38525 15.0159 8.24722 14.5979 7.9851C14.9669 8.39227 15.4552 8.67204 15.9929 8.7843ZM13.3955 6.20633C13.3955 6.13481 13.3737 6.06018 13.3644 5.98865V5.74609H11.4692V13.2779C11.4675 13.6996 11.2988 14.1035 10.9999 14.4008C10.7011 14.6981 10.2966 14.8647 9.87527 14.8638C9.62717 14.8651 9.38229 14.8075 9.16067 14.6959C9.3625 14.961 9.64218 15.1561 9.96047 15.2539C10.2788 15.3517 10.6196 15.3473 10.9353 15.2413C11.251 15.1353 11.5255 14.933 11.7205 14.6629C11.9154 14.3927 12.0209 14.0682 12.0222 13.735V6.20633H13.3955ZM10.36 10.249V9.82296C9.58008 9.71692 8.7873 9.87838 8.11084 10.281C7.43437 10.6837 6.91411 11.3038 6.63484 12.0403C6.35557 12.7768 6.33375 13.5862 6.57295 14.3367C6.81215 15.0872 7.29826 15.7345 7.95206 16.173C7.48169 15.6863 7.16315 15.073 7.03535 14.408C6.90754 13.743 6.97601 13.0552 7.23239 12.4285C7.48876 11.8018 7.92195 11.2635 8.47902 10.8792C9.03609 10.4949 9.69292 10.2813 10.3693 10.2645L10.36 10.249Z" fill="#69C9D0"/>
</svg>
