<svg width="23" height="23" viewBox="0 0 23 23" fill="none" xmlns="http://www.w3.org/2000/svg">
<rect width="22.8905" height="22.8904" rx="11.4452" fill="#33CCFF"/>
<path d="M17.1264 7.82016C16.7484 7.98296 16.3511 8.09633 15.9442 8.15746C16.1344 8.12482 16.4143 7.78208 16.5258 7.64335C16.695 7.43409 16.8241 7.19521 16.9062 6.93883C16.9062 6.91979 16.9253 6.89259 16.9062 6.87899C16.8967 6.87375 16.8859 6.871 16.875 6.871C16.8641 6.871 16.8533 6.87375 16.8437 6.87899C16.4019 7.11848 15.9316 7.30126 15.4441 7.42302C15.4271 7.42821 15.409 7.42868 15.3918 7.42437C15.3745 7.42005 15.3588 7.41112 15.3463 7.39854C15.3083 7.35331 15.2675 7.3106 15.224 7.27069C15.0251 7.09237 14.7995 6.94642 14.5554 6.83819C14.2259 6.70288 13.87 6.64428 13.5145 6.66682C13.1696 6.68862 12.8329 6.78121 12.5252 6.93883C12.2223 7.10501 11.9561 7.33077 11.7425 7.60255C11.5179 7.88228 11.3557 8.2069 11.2669 8.5546C11.1937 8.88533 11.1854 9.22715 11.2425 9.56106C11.2425 9.61818 11.2425 9.62634 11.1936 9.61818C9.25581 9.33256 7.66593 8.64437 6.36685 7.16732C6.30978 7.10204 6.27989 7.10204 6.23368 7.16732C5.66839 8.02689 5.94289 9.38697 6.6495 10.0588C6.74462 10.1486 6.84246 10.2357 6.94573 10.3173C6.62175 10.2942 6.30569 10.2064 6.01627 10.0588C5.96191 10.0235 5.93202 10.0425 5.9293 10.1078C5.92159 10.1983 5.92159 10.2893 5.9293 10.3798C5.98601 10.8136 6.15679 11.2245 6.4242 11.5705C6.6916 11.9165 7.04603 12.1853 7.45123 12.3492C7.55001 12.3916 7.65294 12.4235 7.75834 12.4444C7.45841 12.5035 7.1508 12.5127 6.84789 12.4716C6.78267 12.458 6.75821 12.4934 6.78267 12.5559C7.18218 13.644 8.04913 13.9759 8.68508 14.1608C8.77205 14.1744 8.85902 14.1744 8.95686 14.1962C8.95686 14.1962 8.95686 14.1962 8.94055 14.2125C8.75303 14.5553 7.99478 14.7865 7.64691 14.9062C7.01196 15.1344 6.33498 15.2217 5.66296 15.1618C5.55697 15.1455 5.53251 15.1482 5.50533 15.1618C5.47815 15.1755 5.50533 15.2054 5.53523 15.2326C5.67111 15.3223 5.807 15.4012 5.94832 15.4774C6.36904 15.7071 6.81382 15.8895 7.27458 16.0214C9.66075 16.6797 12.3459 16.1955 14.1369 14.4138C15.5447 13.0156 16.0393 11.0871 16.0393 9.15575C16.0393 9.08231 16.129 9.03879 16.1806 9.00071C16.5368 8.72295 16.8508 8.39493 17.1128 8.02689C17.1582 7.97203 17.1814 7.90218 17.178 7.83104C17.178 7.79024 17.178 7.7984 17.1264 7.82016Z" fill="white"/>
</svg>
