<svg width="23" height="23" viewBox="0 0 23 23" fill="none" xmlns="http://www.w3.org/2000/svg">
<rect y="-0.000976562" width="22.89" height="22.89" rx="11.445" fill="#9146FF"/>
<path d="M14.5633 12.2784L12.9132 13.8094H11.2631L9.81926 15.149V13.8094H7.96289V8.06836H14.5633V12.2784Z" fill="#9146FF"/>
<path d="M8.83327 6.46875L8.33566 6.96636L7.46484 12.5645L10.0773 13.9329L10.4505 14.4305L12.9385 13.5597L15.6754 11.4448L15.7998 9.4544L15.6754 6.59315L15.3022 6.46875H8.83327Z" fill="white"/>
<path d="M8.53138 6.07617L6.46875 7.98985V14.8791H8.9439V16.7927L11.0065 14.8791H12.6566L16.3694 11.4345V6.07617H8.53138ZM15.5443 11.0517L13.8942 12.5827H12.2441L10.8003 13.9222V12.5827H8.9439V6.84164H15.5443V11.0517Z" fill="black"/>
<path d="M14.3075 8.18066H13.4824V10.4771H14.3075V8.18066Z" fill="black"/>
<path d="M12.0379 8.18066H11.2129V10.4771H12.0379V8.18066Z" fill="black"/>
</svg>
