<svg width="23" height="23" viewBox="0 0 23 23" fill="none" xmlns="http://www.w3.org/2000/svg">
<rect width="22.8905" height="22.8904" rx="11.4452" fill="#436EAB"/>
<path d="M16.22 12.3853C16.6373 12.7928 17.0778 13.1761 17.4521 13.6246C17.6174 13.8239 17.7739 14.0296 17.8937 14.2609C18.0634 14.5898 17.9097 14.9516 17.6149 14.9712L15.7821 14.9704C15.3094 15.0096 14.9323 14.8193 14.6152 14.4961C14.3614 14.2376 14.1264 13.9625 13.8825 13.6954C13.7824 13.5862 13.6777 13.4834 13.5526 13.4022C13.3024 13.2398 13.0853 13.2895 12.9423 13.5504C12.7967 13.8158 12.7636 14.1097 12.7493 14.4055C12.7297 14.8371 12.5992 14.9506 12.1657 14.9703C11.2393 15.014 10.36 14.8739 9.54314 14.4065C8.82301 13.9945 8.2646 13.4128 7.77852 12.7543C6.8322 11.4721 6.10746 10.0631 5.45612 8.61464C5.3095 8.2883 5.41673 8.11314 5.7768 8.10692C6.3747 8.0953 6.97252 8.09613 7.57114 8.10608C7.81415 8.10965 7.97502 8.24902 8.06886 8.47859C8.39235 9.27401 8.78817 10.0307 9.28499 10.7322C9.41733 10.9189 9.55224 11.1057 9.74435 11.2371C9.95688 11.3827 10.1187 11.3344 10.2187 11.0977C10.2821 10.9475 10.3099 10.7858 10.3242 10.625C10.3716 10.0719 10.3779 9.51963 10.2948 8.9684C10.2438 8.62437 10.05 8.40165 9.70669 8.33656C9.53152 8.30337 9.55761 8.23818 9.64244 8.1382C9.78972 7.96575 9.92828 7.8584 10.2045 7.8584H12.2758C12.6019 7.92275 12.6743 8.06925 12.719 8.39735L12.7208 10.6982C12.7172 10.8252 12.7842 11.2021 13.013 11.2862C13.1961 11.346 13.3168 11.1996 13.4267 11.0834C13.9226 10.5571 14.2766 9.93504 14.5928 9.29091C14.7331 9.00769 14.8538 8.71356 14.9707 8.41966C15.0573 8.20159 15.1933 8.09429 15.4389 8.09903L17.4325 8.1008C17.4916 8.1008 17.5514 8.10166 17.6086 8.11146C17.9446 8.16872 18.0366 8.31322 17.9329 8.64125C17.7694 9.1559 17.4513 9.58479 17.1403 10.0157C16.8079 10.4757 16.4523 10.9199 16.1226 11.3827C15.8197 11.8053 15.8437 12.0183 16.22 12.3853Z" fill="white"/>
</svg>
