<svg width="23" height="23" viewBox="0 0 23 23" fill="none" xmlns="http://www.w3.org/2000/svg">
<rect width="22.8905" height="22.8904" rx="11.4452" fill="#2E3238"/>
<g clip-path="url(#clip0_3755_1418)">
<path fill-rule="evenodd" clip-rule="evenodd" d="M20 11.0992V10.9997V10.9006C16.0147 10.78 14.1923 10.6806 12.7388 9.26095C11.3195 7.80775 11.2197 5.9854 11.0994 2H11H10.9005C10.7802 5.9854 10.6804 7.80775 9.26112 9.26095C7.80762 10.6806 5.9852 10.78 2 10.9006V10.9997V11.0992C5.9852 11.2198 7.80762 11.3192 9.26112 12.7385C10.6804 14.1921 10.7802 16.0144 10.9005 19.9998H11H11.0994C11.2197 16.0144 11.3195 14.1921 12.7388 12.7385C14.1923 11.3192 16.0147 11.2198 20 11.0992Z" fill="white"/>
</g>
<defs>
<clipPath id="clip0_3755_1418">
<rect width="18" height="18" fill="white" transform="translate(2 2)"/>
</clipPath>
</defs>
</svg>
