<svg width="23" height="23" viewBox="0 0 23 23" fill="none" xmlns="http://www.w3.org/2000/svg">
<rect width="22.8905" height="22.8904" rx="11.4452" fill="#FF0000"/>
<path d="M17.8108 8.2968C17.6614 7.73494 17.2193 7.2917 16.6567 7.13979C15.6397 6.86719 11.5589 6.86719 11.5589 6.86719C11.5589 6.86719 7.48028 6.86719 6.46113 7.13979C5.9007 7.28962 5.45859 7.73286 5.30707 8.2968C5.03516 9.31646 5.03516 11.4453 5.03516 11.4453C5.03516 11.4453 5.03516 13.5741 5.30707 14.5938C5.45651 15.1556 5.89863 15.5989 6.46113 15.7508C7.48028 16.0234 11.5589 16.0234 11.5589 16.0234C11.5589 16.0234 15.6397 16.0234 16.6567 15.7508C17.2172 15.6009 17.6593 15.1577 17.8108 14.5938C18.0827 13.5741 18.0827 11.4453 18.0827 11.4453C18.0827 11.4453 18.0827 9.31646 17.8108 8.2968Z" fill="white"/>
<path d="M10.2554 13.4076L13.645 11.4453L10.2554 9.48294V13.4076Z" fill="#FF0000"/>
</svg>
