<svg width="41" height="9" viewBox="0 0 41 9" fill="none" xmlns="http://www.w3.org/2000/svg">
<path fill-rule="evenodd" clip-rule="evenodd" d="M6.82026 5.09606L5.35852 1.52148L3.9057 5.09606H6.82026ZM20.8298 8.9642L20.8209 1.94391L17.7263 8.9642H15.8545L12.7492 1.93675V8.9642H8.41035L7.59035 6.9648H3.1463L2.31739 8.9642H0L3.82191 0H6.99139L10.6208 8.48807V0H14.104L16.8973 6.08055L19.4625 0H23.017V8.9642H20.8298ZM26.4147 7.13127V5.34666H31.0994V3.5173H26.4147V1.88663H31.7643L34.0995 4.5L31.6609 7.13127H26.4147ZM40.8734 9H38.0997L35.4721 6.03043L32.7412 9H24.288V0.0322189H32.8713L35.4971 2.97136L38.212 0.0322189H41L36.8519 4.51611L40.8734 9Z" fill="#52A4CD"/>
</svg>
