<svg width="40" height="17" viewBox="0 0 40 17" fill="none" xmlns="http://www.w3.org/2000/svg">
<path d="M7.30876 2.19171C6.84001 2.76586 6.08986 3.21888 5.33978 3.1541C5.24603 2.37779 5.61322 1.55279 6.04298 1.04325C6.51173 0.452931 7.3322 0.0323464 7.99634 0C8.07447 0.808742 7.76978 1.60131 7.30884 2.19171H7.30876ZM7.98853 3.30783C6.90243 3.24314 5.97267 3.94667 5.45697 3.94667C4.93353 3.94667 4.14431 3.34018 3.28486 3.35635C2.16759 3.37252 1.12837 4.02754 0.557984 5.07087C-0.614047 7.15746 0.253296 10.247 1.38619 11.9453C1.94095 12.7864 2.60509 13.7083 3.48017 13.676C4.30845 13.6437 4.63658 13.118 5.63673 13.118C6.64462 13.118 6.93376 13.676 7.80884 13.6598C8.71517 13.6437 9.28556 12.8188 9.84032 11.9776C10.4731 11.0233 10.731 10.0932 10.7467 10.0447C10.731 10.0285 8.9965 9.34117 8.98087 7.27067C8.96525 5.53998 10.3482 4.71506 10.4107 4.66654C9.62931 3.46956 8.41048 3.34017 7.98853 3.30783ZM14.2627 0.962388V13.571H16.1535V9.2603H18.771C21.1619 9.2603 22.8418 7.56195 22.8418 5.1033C22.8418 2.64473 21.1931 0.962469 18.8335 0.962469H14.2627L14.2627 0.962388ZM16.1535 2.6123H18.3334C19.9743 2.6123 20.9119 3.51808 20.9119 5.1113C20.9119 6.70453 19.9743 7.61848 18.3256 7.61848H16.1535V2.6123ZM26.2953 13.6679C27.483 13.6679 28.5846 13.0452 29.0847 12.0585H29.1238V13.5709H30.874V7.29493C30.874 5.47528 29.4676 4.30256 27.3032 4.30256C25.2952 4.30256 23.8106 5.49146 23.7559 7.12511H25.4593C25.5999 6.34872 26.2952 5.83918 27.2485 5.83918C28.4049 5.83918 29.0534 6.39724 29.0534 7.4244V8.11985L26.6938 8.26541C24.4982 8.40288 23.3106 9.333 23.3106 10.9506C23.3106 12.5842 24.5373 13.6679 26.2953 13.6679ZM26.8031 12.1717C25.7953 12.1717 25.1545 11.6704 25.1545 10.902C25.1545 10.1095 25.7718 9.64846 26.9516 9.57568L29.0534 9.43821V10.1498C29.0534 11.3306 28.0846 12.1717 26.8032 12.1717H26.8031ZM33.2102 17C35.0541 17 35.9214 16.2722 36.6793 14.0642L40 4.42386H38.0779L35.8511 11.8724H35.812L33.5852 4.42386H31.6084L34.8119 13.6032L34.64 14.1613C34.3509 15.1075 33.8821 15.4715 33.0461 15.4715C32.8977 15.4715 32.6086 15.4553 32.4913 15.4391V16.9515C32.6007 16.9838 33.0695 17 33.2102 17Z" fill="black"/>
</svg>
