<svg width="28" height="17" viewBox="0 0 28 17" fill="none" xmlns="http://www.w3.org/2000/svg">
<path d="M10.2051 1.94336H17.7684V15.0553H10.2051V1.94336Z" fill="#FF5F00"/>
<path d="M10.6847 8.4999C10.6847 5.83585 11.9813 3.47288 13.9741 1.94389C12.5095 0.831945 10.6608 0.160156 8.64391 0.160156C3.86564 0.160156 0 3.88982 0 8.4999C0 13.1099 3.86564 16.8396 8.6438 16.8396C10.6607 16.8396 12.5094 16.1679 13.9741 15.0558C11.9813 13.55 10.6847 11.1639 10.6847 8.4999Z" fill="#EB001B"/>
<path d="M27.9721 8.4999C27.9721 13.1099 24.1065 16.8396 19.3283 16.8396C17.3115 16.8396 15.4627 16.1679 13.998 15.0558C16.0149 13.5269 17.2875 11.1639 17.2875 8.4999C17.2875 5.83585 15.9909 3.47288 13.998 1.94389C15.4626 0.831945 17.3115 0.160156 19.3283 0.160156C24.1065 0.160156 27.9722 3.91304 27.9722 8.4999H27.9721Z" fill="#F79E1B"/>
</svg>
