<svg width="34" height="11" viewBox="0 0 34 11" fill="none" xmlns="http://www.w3.org/2000/svg">
<path d="M12.9087 0.195846L8.4575 10.834H5.55333L3.36317 2.34305C3.23 1.8208 3.11525 1.62921 2.71008 1.40924C2.04992 1.05019 0.959083 0.713844 0 0.503807L0.0651667 0.195846H4.74017C5.04567 0.19554 5.34121 0.304646 5.57346 0.503472C5.80571 0.702298 5.95935 0.977744 6.00667 1.28009L7.16408 7.43646L10.0229 0.195846H12.9087ZM24.2887 7.36124C24.3001 4.5527 20.4128 4.39801 20.4397 3.14347C20.4482 2.76171 20.8108 2.35583 21.6042 2.25223C22.5339 2.16377 23.4702 2.32852 24.3142 2.72907L24.7959 0.472584C23.9742 0.163127 23.1039 0.00308899 22.2261 0C19.5103 0 17.5993 1.44756 17.5823 3.51813C17.5653 5.04941 18.9465 5.90234 19.9877 6.41324C21.0588 6.93407 21.4186 7.269 21.4129 7.73449C21.4058 8.44975 20.5601 8.76338 19.7696 8.77616C18.3883 8.79745 17.5879 8.40292 16.9476 8.10489L16.4503 10.4352C17.0921 10.7304 18.2764 10.9886 19.5047 11C22.3904 11 24.2788 9.57231 24.2887 7.36124ZM31.4585 10.834H34L31.7829 0.195846H29.4369C29.1863 0.193519 28.9407 0.266689 28.732 0.405867C28.5234 0.545045 28.3613 0.743811 28.2667 0.976391L24.1457 10.834H27.03L27.6038 9.24448H31.1284L31.4585 10.834ZM28.3942 7.06464L29.8392 3.06967L30.6722 7.06464H28.3942ZM16.8342 0.195846L14.5633 10.834H11.815L14.0887 0.195846H16.8342Z" fill="#1C2A80"/>
</svg>
