<svg width="114" height="27" viewBox="0 0 114 27" fill="none" xmlns="http://www.w3.org/2000/svg">
<path d="M34.8343 9.34375H45.6988V11.3663H41.421V22.7678H39.0763V11.3663H34.8164L34.8343 9.34375ZM45.2334 13.0488H47.2381V14.9281H47.2739C47.3455 14.6597 47.4708 14.4091 47.6498 14.1585C47.8287 13.9079 48.0435 13.6752 48.312 13.4783C48.5626 13.2636 48.849 13.1025 49.1711 12.9772C49.4754 12.8519 49.7976 12.7803 50.1198 12.7803C50.3704 12.7803 50.5493 12.7982 50.6388 12.7982C50.7283 12.8161 50.8357 12.834 50.9252 12.834V14.8923C50.782 14.8565 50.6209 14.8386 50.4599 14.8207C50.2988 14.8028 50.1556 14.7849 49.9945 14.7849C49.6365 14.7849 49.2964 14.8565 48.9743 14.9997C48.6521 15.1429 48.3836 15.3577 48.133 15.6262C47.9003 15.9126 47.7035 16.2526 47.5603 16.6643C47.4171 17.076 47.3455 17.5592 47.3455 18.0962V22.7141H45.1976L45.2334 13.0488ZM60.7695 22.7678H58.6574V21.4075H58.6217C58.3532 21.9086 57.9594 22.2845 57.4403 22.5888C56.9213 22.8931 56.3843 23.0362 55.8474 23.0362C54.5766 23.0362 53.6458 22.732 53.0731 22.0876C52.5003 21.4612 52.2139 20.4946 52.2139 19.2238V13.0488H54.3618V19.009C54.3618 19.8682 54.5229 20.4767 54.8629 20.8168C55.1851 21.1748 55.6505 21.3538 56.2411 21.3538C56.6886 21.3538 57.0645 21.2822 57.3687 21.139C57.673 20.9958 57.9236 20.8168 58.1026 20.5841C58.2995 20.3514 58.4248 20.0651 58.5143 19.7429C58.6038 19.4207 58.6396 19.0627 58.6396 18.6869V13.0488H60.7874V22.7678H60.7695ZM64.4208 19.6534C64.4924 20.2798 64.7251 20.7094 65.1368 20.9779C65.5484 21.2285 66.0496 21.3538 66.6224 21.3538C66.8192 21.3538 67.0519 21.3359 67.3025 21.3001C67.5531 21.2643 67.8037 21.2106 68.0185 21.1211C68.2511 21.0316 68.4301 20.9063 68.5733 20.7273C68.7165 20.5483 68.7881 20.3335 68.7702 20.0651C68.7523 19.7966 68.6628 19.5639 68.4659 19.3849C68.269 19.2059 68.0364 19.0806 67.75 18.9553C67.4636 18.8479 67.1235 18.7585 66.7477 18.6869C66.3718 18.6153 65.9959 18.5258 65.6021 18.4363C65.2084 18.3468 64.8146 18.2394 64.4387 18.1141C64.0629 17.9888 63.7407 17.8277 63.4364 17.595C63.15 17.3803 62.8994 17.1118 62.7383 16.7717C62.5594 16.4316 62.4699 16.0379 62.4699 15.5367C62.4699 14.9997 62.5952 14.5702 62.8636 14.2122C63.1142 13.8542 63.4543 13.5678 63.8481 13.3531C64.2418 13.1383 64.6893 12.9772 65.1726 12.8877C65.6558 12.7982 66.1212 12.7624 66.5508 12.7624C67.0519 12.7624 67.5352 12.8161 67.9827 12.9235C68.4301 13.0309 68.8597 13.192 69.2177 13.4425C69.5935 13.6752 69.8978 13.9974 70.1305 14.3733C70.3811 14.7491 70.5243 15.2145 70.5959 15.7515H68.3585C68.2511 15.2324 68.0185 14.8923 67.6605 14.7134C67.2846 14.5344 66.8729 14.4449 66.3897 14.4449C66.2465 14.4449 66.0496 14.4628 65.8527 14.4807C65.6379 14.5165 65.459 14.5523 65.2621 14.6239C65.0831 14.6955 64.922 14.8028 64.7967 14.9281C64.6714 15.0534 64.5998 15.2324 64.5998 15.4472C64.5998 15.7157 64.6893 15.9126 64.8683 16.0736C65.0473 16.2347 65.28 16.36 65.5842 16.4853C65.8706 16.5927 66.2107 16.6822 66.5866 16.7538C66.9624 16.8254 67.3562 16.9149 67.75 17.0044C68.1438 17.0939 68.5196 17.2013 68.8955 17.3266C69.2714 17.4518 69.6114 17.6129 69.8978 17.8456C70.1842 18.0604 70.4348 18.3289 70.6138 18.6511C70.7928 18.9732 70.8823 19.3849 70.8823 19.8503C70.8823 20.423 70.757 20.9063 70.4885 21.318C70.22 21.7117 69.8799 22.0518 69.4683 22.3024C69.0566 22.553 68.5733 22.732 68.0722 22.8573C67.5531 22.9646 67.0519 23.0362 66.5508 23.0362C65.9422 23.0362 65.3695 22.9646 64.8504 22.8215C64.3313 22.6783 63.866 22.4635 63.4901 22.195C63.1142 21.9086 62.8099 21.5685 62.5952 21.139C62.3804 20.7273 62.2551 20.2261 62.2372 19.6355H64.4029V19.6534H64.4208ZM71.4908 13.0488H73.1196V10.1134H75.2674V13.0309H77.2005V14.6239H75.2674V19.8145C75.2674 20.0472 75.2853 20.2261 75.3032 20.4051C75.3211 20.5662 75.3748 20.7094 75.4285 20.8168C75.5001 20.9242 75.6075 21.0137 75.7328 21.0674C75.876 21.1211 76.055 21.1569 76.3055 21.1569C76.4487 21.1569 76.6098 21.1569 76.753 21.139C76.8962 21.1211 77.0573 21.1032 77.2005 21.0674V22.732C76.9678 22.7678 76.7351 22.7857 76.5024 22.8036C76.2698 22.8394 76.055 22.8394 75.8044 22.8394C75.2316 22.8394 74.7842 22.7857 74.4441 22.6783C74.104 22.5709 73.8355 22.4098 73.6386 22.2129C73.4418 21.9981 73.3165 21.7475 73.2449 21.4433C73.1733 21.139 73.1375 20.7631 73.1196 20.3693V14.6418H71.4908V13.013V13.0488ZM78.704 13.0488H80.7265V14.3733H80.7623C81.0666 13.8005 81.4783 13.4067 82.0152 13.1562C82.5522 12.9056 83.1249 12.7803 83.7693 12.7803C84.5389 12.7803 85.2012 12.9056 85.7739 13.192C86.3467 13.4604 86.8121 13.8184 87.188 14.3017C87.5638 14.767 87.8502 15.3219 88.0292 15.9484C88.2082 16.5748 88.3156 17.255 88.3156 17.953C88.3156 18.6153 88.2261 19.2417 88.065 19.8503C87.886 20.4588 87.6354 21.0137 87.2953 21.4791C86.9553 21.9444 86.5257 22.3203 85.9887 22.6067C85.4518 22.893 84.8432 23.0362 84.1273 23.0362C83.823 23.0362 83.5008 23.0004 83.1965 22.9467C82.8923 22.8931 82.588 22.8036 82.3016 22.6783C82.0152 22.553 81.7467 22.3919 81.5141 22.195C81.2635 21.9981 81.0666 21.7654 80.9055 21.5149H80.8697V26.3654H78.7219V13.0488H78.704ZM86.2035 17.9172C86.2035 17.4876 86.1498 17.0581 86.0245 16.6464C85.9171 16.2347 85.7382 15.8768 85.5055 15.5546C85.2728 15.2324 84.9864 14.9818 84.6642 14.7849C84.3242 14.5881 83.9304 14.4986 83.5008 14.4986C82.6059 14.4986 81.9257 14.8028 81.4604 15.4293C81.0129 16.0558 80.7802 16.897 80.7802 17.9351C80.7802 18.4363 80.8339 18.8837 80.9592 19.2954C81.0845 19.7071 81.2456 20.0651 81.4962 20.3693C81.7288 20.6736 82.0152 20.9063 82.3553 21.0853C82.6954 21.2643 83.0713 21.3538 83.5187 21.3538C84.0199 21.3538 84.4137 21.2464 84.7537 21.0495C85.0938 20.8526 85.3623 20.5841 85.595 20.2798C85.8097 19.9577 85.9708 19.5997 86.0603 19.188C86.1498 18.7585 86.2035 18.3468 86.2035 17.9172ZM89.9801 9.34375H92.128V11.3663H89.9801V9.34375ZM89.9801 13.0488H92.128V22.7678H89.9801V13.0488ZM94.0431 9.34375H96.191V22.7678H94.0431V9.34375ZM102.742 23.0362C101.972 23.0362 101.274 22.9109 100.666 22.6425C100.057 22.374 99.5559 22.0339 99.1264 21.5864C98.7147 21.139 98.3925 20.5841 98.1777 19.9577C97.963 19.3312 97.8377 18.6332 97.8377 17.8993C97.8377 17.1655 97.9451 16.4853 98.1777 15.8589C98.3925 15.2324 98.7147 14.6955 99.1264 14.2301C99.538 13.7826 100.057 13.4246 100.666 13.1741C101.274 12.9235 101.972 12.7803 102.742 12.7803C103.512 12.7803 104.21 12.9056 104.818 13.1741C105.427 13.4246 105.928 13.7826 106.357 14.2301C106.769 14.6776 107.091 15.2324 107.306 15.8589C107.521 16.4853 107.646 17.1655 107.646 17.8993C107.646 18.6511 107.539 19.3312 107.306 19.9577C107.073 20.5841 106.769 21.1211 106.357 21.5864C105.946 22.0339 105.427 22.3919 104.818 22.6425C104.21 22.8931 103.529 23.0362 102.742 23.0362ZM102.742 21.3359C103.207 21.3359 103.637 21.2285 103.977 21.0316C104.335 20.8347 104.603 20.5662 104.836 20.244C105.069 19.9219 105.23 19.546 105.337 19.1522C105.445 18.7406 105.498 18.3289 105.498 17.8993C105.498 17.4876 105.445 17.076 105.337 16.6643C105.23 16.2526 105.069 15.8947 104.836 15.5725C104.603 15.2503 104.317 14.9997 103.977 14.8028C103.619 14.606 103.207 14.4986 102.742 14.4986C102.277 14.4986 101.847 14.606 101.507 14.8028C101.149 14.9997 100.88 15.2682 100.648 15.5725C100.415 15.8947 100.254 16.2526 100.147 16.6643C100.039 17.076 99.9855 17.4876 99.9855 17.8993C99.9855 18.3289 100.039 18.7406 100.147 19.1522C100.254 19.5639 100.415 19.9219 100.648 20.244C100.88 20.5662 101.167 20.8347 101.507 21.0316C101.865 21.2464 102.277 21.3359 102.742 21.3359ZM108.29 13.0488H109.919V10.1134H112.067V13.0309H114V14.6239H112.067V19.8145C112.067 20.0472 112.085 20.2261 112.103 20.4051C112.121 20.5662 112.175 20.7094 112.228 20.8168C112.3 20.9242 112.407 21.0137 112.532 21.0674C112.676 21.1211 112.855 21.1569 113.105 21.1569C113.248 21.1569 113.41 21.1569 113.553 21.139C113.696 21.1211 113.857 21.1032 114 21.0674V22.732C113.767 22.7678 113.535 22.7857 113.302 22.8036C113.069 22.8394 112.855 22.8394 112.604 22.8394C112.031 22.8394 111.584 22.7857 111.244 22.6783C110.904 22.5709 110.635 22.4098 110.438 22.2129C110.241 21.9981 110.116 21.7475 110.045 21.4433C109.973 21.139 109.937 20.7631 109.919 20.3693V14.6418H108.29V13.013V13.0488Z" fill="white"/>
<path d="M25.7204 9.34311H15.894L12.8692 0L9.82638 9.34311L0 9.32521L7.94701 15.1065L4.90424 24.4496L12.8513 18.6683L20.7983 24.4496L17.7734 15.1065L25.7204 9.34311Z" fill="#6BB183"/>
<path d="M18.4535 17.2195L17.7734 15.1074L12.8691 18.6693L18.4535 17.2195Z" fill="#005128"/>
</svg>
