<svg width="94" height="111" viewBox="0 0 94 111" fill="none" xmlns="http://www.w3.org/2000/svg">
<g filter="url(#filter0_ddddd_3755_1487)">
<rect x="11" y="2" width="72.045" height="71.2072" rx="15" fill="white"/>
<rect x="11" y="2" width="72.045" height="71.2072" rx="15" fill="url(#paint0_radial_3755_1487)" fill-opacity="0.03"/>
<rect x="11" y="2" width="72.045" height="71.2072" rx="15" fill="url(#paint1_linear_3755_1487)"/>
<rect x="11" y="2" width="72.045" height="71.2072" rx="15" fill="url(#paint2_radial_3755_1487)" fill-opacity="0.3"/>
</g>
<path d="M47.0225 22.1055C42.9233 22.1055 42.4124 22.1253 40.8082 22.1931C39.1974 22.2723 38.1077 22.5221 37.1463 22.8953C36.1401 23.2752 35.2288 23.87 34.476 24.6381C33.7057 25.3892 33.1106 26.301 32.7332 27.3084C32.36 28.2699 32.1102 29.3595 32.031 30.9703C31.9584 32.5755 31.9434 33.0854 31.9434 37.1846C31.9434 41.2839 31.9632 41.7947 32.031 43.399C32.1102 45.0051 32.36 46.0994 32.7332 47.0609C33.1131 48.0671 33.7079 48.9784 34.476 49.7311C35.2271 50.5015 36.1388 51.0966 37.1463 51.474C38.1077 51.8425 39.2021 52.097 40.8082 52.1762C42.4134 52.2487 42.9233 52.2638 47.0225 52.2638C51.1218 52.2638 51.6326 52.244 53.2369 52.1762C54.843 52.097 55.9373 51.8416 56.8987 51.474C57.905 51.0941 58.8162 50.4993 59.569 49.7311C60.3404 48.9809 60.9356 48.0689 61.3118 47.0609C61.6804 46.0994 61.9349 45.0051 62.0141 43.399C62.0866 41.7938 62.1017 41.2839 62.1017 37.1846C62.1017 33.0854 62.0819 32.5746 62.0141 30.9703C61.9349 29.3642 61.6794 28.2642 61.3118 27.3084C60.932 26.3022 60.3372 25.3909 59.569 24.6381C58.8188 23.8668 57.9068 23.2716 56.8987 22.8953C55.9373 22.5221 54.843 22.2723 53.2369 22.1931C51.6317 22.1205 51.1218 22.1055 47.0225 22.1055ZM47.0225 24.8201C51.0482 24.8201 51.5289 24.8399 53.12 24.9077C54.5876 24.9765 55.3869 25.2216 55.9175 25.429C56.5736 25.6711 57.1674 26.0566 57.6556 26.5572C58.1554 27.0434 58.5394 27.6358 58.7792 28.2906C58.9865 28.8213 59.2316 29.6206 59.3004 31.0881C59.3683 32.6792 59.3881 33.1608 59.3881 37.1856C59.3881 41.2103 59.3683 41.692 59.2948 43.2831C59.2156 44.7506 58.9705 45.5499 58.7641 46.0806C58.4785 46.7885 58.1599 47.2833 57.6339 47.8187C57.144 48.3162 56.5506 48.6998 55.8959 48.9422C55.3718 49.1496 54.5612 49.3947 53.088 49.4635C51.4884 49.5313 51.0171 49.5511 46.9811 49.5511C42.945 49.5511 42.4747 49.5313 40.8732 49.4578C39.4057 49.3786 38.596 49.1336 38.0653 48.9271C37.349 48.6415 36.8579 48.323 36.3319 47.797C35.8013 47.2663 35.4638 46.7611 35.2037 46.0589C34.9926 45.5348 34.7513 44.7242 34.673 43.251C34.6193 41.6703 34.5939 41.1802 34.5939 37.163C34.5939 33.1476 34.6193 32.6566 34.673 31.0561C34.7513 29.5828 34.9926 28.7741 35.2037 28.2482C35.4638 27.5309 35.8022 27.0407 36.3319 26.5101C36.857 25.9851 37.349 25.6457 38.0653 25.3799C38.596 25.1735 39.3859 24.9285 40.8591 24.8549C42.4586 24.7974 42.9299 24.7767 46.9603 24.7767L47.0225 24.8201ZM47.0225 29.4452C46.0058 29.4449 44.999 29.6448 44.0596 30.0337C43.1202 30.4227 42.2667 30.9929 41.5478 31.7118C40.8289 32.4307 40.2587 33.2842 39.8698 34.2236C39.4808 35.163 39.2809 36.1698 39.2812 37.1865C39.2809 38.2032 39.4808 39.2101 39.8698 40.1494C40.2587 41.0888 40.8289 41.9424 41.5478 42.6613C42.2667 43.3802 43.1202 43.9504 44.0596 44.3393C44.999 44.7282 46.0058 44.9282 47.0225 44.9278C48.0392 44.9282 49.0461 44.7282 49.9854 44.3393C50.9248 43.9504 51.7784 43.3802 52.4973 42.6613C53.2162 41.9424 53.7864 41.0888 54.1753 40.1494C54.5642 39.2101 54.7642 38.2032 54.7638 37.1865C54.7642 36.1698 54.5642 35.163 54.1753 34.2236C53.7864 33.2842 53.2162 32.4307 52.4973 31.7118C51.7784 30.9929 50.9248 30.4227 49.9854 30.0337C49.0461 29.6448 48.0392 29.4449 47.0225 29.4452ZM47.0225 42.2132C44.2439 42.2132 41.9958 39.9652 41.9958 37.1865C41.9958 34.4078 44.2439 32.1598 47.0225 32.1598C49.8012 32.1598 52.0492 34.4078 52.0492 37.1865C52.0492 39.9652 49.8012 42.2132 47.0225 42.2132ZM56.8856 29.1361C56.8851 29.6165 56.6939 30.077 56.354 30.4165C56.0141 30.756 55.5534 30.9467 55.073 30.9467C54.8355 30.9467 54.6003 30.9 54.3808 30.8091C54.1614 30.7182 53.962 30.5849 53.794 30.417C53.626 30.249 53.4928 30.0496 53.4019 29.8301C53.311 29.6107 53.2642 29.3755 53.2642 29.138C53.2642 28.9004 53.311 28.6652 53.4019 28.4458C53.4928 28.2263 53.626 28.0269 53.794 27.859C53.962 27.691 54.1614 27.5578 54.3808 27.4669C54.6003 27.376 54.8355 27.3292 55.073 27.3292C56.0693 27.3292 56.8856 28.1398 56.8856 29.1361Z" fill="white"/>
<defs>
<filter id="filter0_ddddd_3755_1487" x="0.109485" y="0.324536" width="93.826" height="110.58" filterUnits="userSpaceOnUse" color-interpolation-filters="sRGB">
<feFlood flood-opacity="0" result="BackgroundImageFix"/>
<feColorMatrix in="SourceAlpha" type="matrix" values="0 0 0 0 0 0 0 0 0 0 0 0 0 0 0 0 0 0 127 0" result="hardAlpha"/>
<feOffset/>
<feColorMatrix type="matrix" values="0 0 0 0 0 0 0 0 0 0 0 0 0 0 0 0 0 0 0.1 0"/>
<feBlend mode="normal" in2="BackgroundImageFix" result="effect1_dropShadow_3755_1487"/>
<feColorMatrix in="SourceAlpha" type="matrix" values="0 0 0 0 0 0 0 0 0 0 0 0 0 0 0 0 0 0 127 0" result="hardAlpha"/>
<feOffset dy="1.67546"/>
<feGaussianBlur stdDeviation="1.67546"/>
<feColorMatrix type="matrix" values="0 0 0 0 0 0 0 0 0 0 0 0 0 0 0 0 0 0 0.1 0"/>
<feBlend mode="normal" in2="effect1_dropShadow_3755_1487" result="effect2_dropShadow_3755_1487"/>
<feColorMatrix in="SourceAlpha" type="matrix" values="0 0 0 0 0 0 0 0 0 0 0 0 0 0 0 0 0 0 127 0" result="hardAlpha"/>
<feOffset dy="6.70186"/>
<feGaussianBlur stdDeviation="3.35093"/>
<feColorMatrix type="matrix" values="0 0 0 0 0 0 0 0 0 0 0 0 0 0 0 0 0 0 0.09 0"/>
<feBlend mode="normal" in2="effect2_dropShadow_3755_1487" result="effect3_dropShadow_3755_1487"/>
<feColorMatrix in="SourceAlpha" type="matrix" values="0 0 0 0 0 0 0 0 0 0 0 0 0 0 0 0 0 0 127 0" result="hardAlpha"/>
<feOffset dy="15.0792"/>
<feGaussianBlur stdDeviation="4.60753"/>
<feColorMatrix type="matrix" values="0 0 0 0 0 0 0 0 0 0 0 0 0 0 0 0 0 0 0.05 0"/>
<feBlend mode="normal" in2="effect3_dropShadow_3755_1487" result="effect4_dropShadow_3755_1487"/>
<feColorMatrix in="SourceAlpha" type="matrix" values="0 0 0 0 0 0 0 0 0 0 0 0 0 0 0 0 0 0 127 0" result="hardAlpha"/>
<feOffset dy="26.8074"/>
<feGaussianBlur stdDeviation="5.44526"/>
<feColorMatrix type="matrix" values="0 0 0 0 0 0 0 0 0 0 0 0 0 0 0 0 0 0 0.01 0"/>
<feBlend mode="normal" in2="effect4_dropShadow_3755_1487" result="effect5_dropShadow_3755_1487"/>
<feBlend mode="normal" in="SourceGraphic" in2="effect5_dropShadow_3755_1487" result="shape"/>
</filter>
<radialGradient id="paint0_radial_3755_1487" cx="0" cy="0" r="1" gradientUnits="userSpaceOnUse" gradientTransform="translate(62.5205 16.6603) rotate(88.5498) scale(33.101 33.4904)">
<stop/>
<stop offset="1" stop-opacity="0"/>
</radialGradient>
<linearGradient id="paint1_linear_3755_1487" x1="73.8299" y1="5.76979" x2="18.4166" y2="67.1507" gradientUnits="userSpaceOnUse">
<stop stop-color="#AC4CEB"/>
<stop offset="0.505661" stop-color="#E53042"/>
<stop offset="1" stop-color="#FDE913"/>
</linearGradient>
<radialGradient id="paint2_radial_3755_1487" cx="0" cy="0" r="1" gradientUnits="userSpaceOnUse" gradientTransform="translate(34.0308 16.008) rotate(55.6564) scale(54.4313 54.6664)">
<stop stop-color="white"/>
<stop offset="0.697917" stop-color="white" stop-opacity="0"/>
<stop offset="1" stop-color="white" stop-opacity="0"/>
</radialGradient>
</defs>
</svg>
