<svg width="42" height="35" viewBox="0 0 42 35" fill="none" xmlns="http://www.w3.org/2000/svg">
<path d="M18.0727 35H0V22.9182C0 18.6002 0.29697 15.0712 0.890909 12.331C1.48485 9.50771 2.8 7.09964 4.83636 5.10676C6.95758 3.03085 9.20606 1.66074 11.5818 0.996443C13.9576 0.332148 16.1212 0 18.0727 0V9.34164C16.8848 9.59075 15.9515 9.83986 15.2727 10.089C14.6788 10.255 13.8727 10.6702 12.8545 11.3345C11.9212 11.9158 11.2848 12.7461 10.9455 13.8256C10.6061 14.8221 10.4364 16.1091 10.4364 17.6868H18.0727V35ZM42 35H23.9273V22.2954C23.9273 18.4757 24.2242 15.1127 24.8182 12.2064C25.497 9.30012 26.8121 6.89206 28.7636 4.98221C30.8 2.98933 33.0061 1.66074 35.3818 0.996443C37.7576 0.332148 39.9636 0 42 0V9.34164C40.303 9.67379 39.2424 9.92289 38.8182 10.089C38.4788 10.255 37.8 10.6702 36.7818 11.3345C35.7636 11.9158 35.0849 12.7461 34.7455 13.8256C34.4061 14.8221 34.2364 16.1091 34.2364 17.6868H42V35Z" fill="#A9AEC3" fill-opacity="0.25"/>
</svg>
