<svg width="98" height="117" viewBox="0 0 98 117" fill="none" xmlns="http://www.w3.org/2000/svg">
<g filter="url(#filter0_ddddd_3755_1513)">
<rect x="13" y="2" width="72.045" height="71.2072" rx="17.1534" fill="#FF4500"/>
<rect x="13" y="2" width="72.045" height="71.2072" rx="17.1534" fill="url(#paint0_radial_3755_1513)" fill-opacity="0.3"/>
</g>
<path d="M61.3358 37.6307C61.3394 37.8732 61.309 38.1152 61.2448 38.3492C61.1805 38.5833 61.0832 38.8076 60.9555 39.0146C60.8283 39.2217 60.6721 39.4101 60.4917 39.5743C60.3114 39.7384 60.1088 39.8765 59.8896 39.9844C59.8945 40.049 59.8985 40.114 59.9008 40.1791C59.9061 40.3088 59.9061 40.4387 59.9008 40.5684C59.8985 40.6334 59.8945 40.6985 59.8896 40.7631C59.8896 44.7271 55.2296 47.9479 49.4805 47.9479C43.7313 47.9479 39.0713 44.7271 39.0713 40.7631C39.0664 40.6985 39.0624 40.6334 39.0602 40.5684C39.0548 40.4387 39.0548 40.3088 39.0602 40.1791C39.0624 40.114 39.0664 40.049 39.0713 39.9844C38.728 39.828 38.423 39.5995 38.1775 39.3147C37.9321 39.0299 37.752 38.6957 37.6497 38.3351C37.5476 37.9743 37.5258 37.5959 37.5859 37.226C37.646 36.8561 37.7866 36.5036 37.9978 36.1929C38.2089 35.8822 38.4856 35.6208 38.8088 35.4268C39.132 35.2327 39.4939 35.1107 39.8694 35.0691C40.245 35.0274 40.6252 35.0671 40.9838 35.1855C41.3423 35.304 41.6706 35.4982 41.9459 35.7549C42.4569 35.4116 42.9923 35.1054 43.5479 34.8386C44.1036 34.5723 44.6781 34.3458 45.2668 34.1617C45.8556 33.9777 46.4573 33.8366 47.0665 33.7388C47.6758 33.641 48.2918 33.5875 48.9091 33.5782L50.2303 27.4374C50.2451 27.3662 50.2741 27.2989 50.3156 27.2388C50.3567 27.1791 50.4098 27.1277 50.4709 27.0884C50.5325 27.049 50.6013 27.022 50.6736 27.0087C50.7454 26.9959 50.8195 26.9972 50.891 27.0127L55.2653 27.8798C55.7067 27.1282 56.6334 26.8061 57.4516 27.1193C58.2698 27.4326 58.7375 28.2886 58.5545 29.139C58.372 29.9893 57.5926 30.5821 56.7169 30.5374C55.8407 30.4928 55.1269 29.8238 55.0332 28.9593L51.2123 28.163L50.0518 33.6844C50.6615 33.6972 51.2699 33.7538 51.8716 33.8534C53.0765 34.0524 54.2462 34.4229 55.3443 34.9532C55.8928 35.2178 56.4213 35.5212 56.9258 35.8611C57.2885 35.5159 57.7443 35.2822 58.2381 35.1881C58.7319 35.0938 59.2427 35.1431 59.7088 35.3302C60.175 35.5171 60.5767 35.8338 60.8653 36.242C61.1541 36.6502 61.3175 37.1325 61.3358 37.6307ZM43.6171 40.0778C43.7072 40.2923 43.8385 40.4874 44.0045 40.6516C44.1701 40.8162 44.367 40.9462 44.5834 41.0356C44.8001 41.1244 45.0323 41.1701 45.2668 41.1701C45.989 41.1701 46.6398 40.7387 46.9166 40.0778C47.1929 39.4163 47.0398 38.6554 46.5291 38.1493C46.0185 37.6431 45.2507 37.4914 44.5834 37.7652C43.9166 38.0395 43.4814 38.6846 43.4814 39.4004C43.4814 39.6327 43.5273 39.8627 43.6171 40.0778ZM53.8432 44.3259C53.9347 44.2374 53.9869 44.1166 53.9887 43.9901C53.9905 43.8631 53.9409 43.741 53.8517 43.6503C53.7624 43.5596 53.6405 43.5078 53.5129 43.5061C53.3848 43.5043 53.2616 43.5534 53.1585 43.6299C52.89 43.8208 52.6057 43.9888 52.3086 44.1321C52.0115 44.2754 51.7027 44.3937 51.3855 44.4856C51.0686 44.5772 50.7441 44.6422 50.416 44.6798C50.0875 44.7174 49.7568 44.7271 49.4269 44.7094C49.0975 44.724 48.7672 44.7108 48.44 44.6701C48.1127 44.6298 47.7896 44.5617 47.4741 44.4665C47.158 44.3719 46.8514 44.2506 46.5564 44.1046C46.2613 43.9587 45.9792 43.7879 45.7132 43.5945C45.6208 43.5193 45.5034 43.4808 45.3838 43.4866C45.2641 43.4923 45.1512 43.5423 45.0664 43.626C44.982 43.71 44.9316 43.8219 44.9258 43.9405C44.92 44.0591 44.9588 44.1754 45.0347 44.267C45.3485 44.5015 45.6819 44.7085 46.0314 44.8864C46.3809 45.0643 46.7456 45.2116 47.1206 45.3275C47.4955 45.4434 47.8798 45.527 48.2695 45.5779C48.6592 45.6283 49.0524 45.6456 49.4448 45.6297C49.8371 45.6456 50.2303 45.6283 50.62 45.5779C51.4005 45.4762 52.1575 45.2422 52.8581 44.8864C53.2076 44.7085 53.541 44.5015 53.8548 44.267L53.8432 44.3259ZM53.5156 41.3117C53.7575 41.3143 53.9976 41.2679 54.2213 41.1758C54.4449 41.0834 54.6471 40.9471 54.8158 40.775C54.9845 40.6029 55.1158 40.3985 55.2024 40.1742C55.289 39.9502 55.3287 39.7109 55.3189 39.4712C55.3189 38.7554 54.8837 38.1103 54.2168 37.836C53.5495 37.5622 52.7817 37.7139 52.2711 38.22C51.7605 38.7262 51.6074 39.4871 51.8837 40.1485C52.1604 40.8095 52.8112 41.2409 53.5334 41.2409L53.5156 41.3117Z" fill="white"/>
<defs>
<filter id="filter0_ddddd_3755_1513" x="0.611446" y="0.0940686" width="96.822" height="115.996" filterUnits="userSpaceOnUse" color-interpolation-filters="sRGB">
<feFlood flood-opacity="0" result="BackgroundImageFix"/>
<feColorMatrix in="SourceAlpha" type="matrix" values="0 0 0 0 0 0 0 0 0 0 0 0 0 0 0 0 0 0 127 0" result="hardAlpha"/>
<feOffset/>
<feColorMatrix type="matrix" values="0 0 0 0 0 0 0 0 0 0 0 0 0 0 0 0 0 0 0.1 0"/>
<feBlend mode="normal" in2="BackgroundImageFix" result="effect1_dropShadow_3755_1513"/>
<feColorMatrix in="SourceAlpha" type="matrix" values="0 0 0 0 0 0 0 0 0 0 0 0 0 0 0 0 0 0 127 0" result="hardAlpha"/>
<feOffset dy="1.90593"/>
<feGaussianBlur stdDeviation="1.90593"/>
<feColorMatrix type="matrix" values="0 0 0 0 0 0 0 0 0 0 0 0 0 0 0 0 0 0 0.1 0"/>
<feBlend mode="normal" in2="effect1_dropShadow_3755_1513" result="effect2_dropShadow_3755_1513"/>
<feColorMatrix in="SourceAlpha" type="matrix" values="0 0 0 0 0 0 0 0 0 0 0 0 0 0 0 0 0 0 127 0" result="hardAlpha"/>
<feOffset dy="7.62373"/>
<feGaussianBlur stdDeviation="3.81186"/>
<feColorMatrix type="matrix" values="0 0 0 0 0 0 0 0 0 0 0 0 0 0 0 0 0 0 0.09 0"/>
<feBlend mode="normal" in2="effect2_dropShadow_3755_1513" result="effect3_dropShadow_3755_1513"/>
<feColorMatrix in="SourceAlpha" type="matrix" values="0 0 0 0 0 0 0 0 0 0 0 0 0 0 0 0 0 0 127 0" result="hardAlpha"/>
<feOffset dy="17.1534"/>
<feGaussianBlur stdDeviation="5.24131"/>
<feColorMatrix type="matrix" values="0 0 0 0 0 0 0 0 0 0 0 0 0 0 0 0 0 0 0.05 0"/>
<feBlend mode="normal" in2="effect3_dropShadow_3755_1513" result="effect4_dropShadow_3755_1513"/>
<feColorMatrix in="SourceAlpha" type="matrix" values="0 0 0 0 0 0 0 0 0 0 0 0 0 0 0 0 0 0 127 0" result="hardAlpha"/>
<feOffset dy="30.4949"/>
<feGaussianBlur stdDeviation="6.19428"/>
<feColorMatrix type="matrix" values="0 0 0 0 0 0 0 0 0 0 0 0 0 0 0 0 0 0 0.01 0"/>
<feBlend mode="normal" in2="effect4_dropShadow_3755_1513" result="effect5_dropShadow_3755_1513"/>
<feBlend mode="normal" in="SourceGraphic" in2="effect5_dropShadow_3755_1513" result="shape"/>
</filter>
<radialGradient id="paint0_radial_3755_1513" cx="0" cy="0" r="1" gradientUnits="userSpaceOnUse" gradientTransform="translate(36.0308 16.008) rotate(55.6564) scale(54.4313 54.6664)">
<stop stop-color="white"/>
<stop offset="0.697917" stop-color="white" stop-opacity="0"/>
<stop offset="1" stop-color="white" stop-opacity="0"/>
</radialGradient>
</defs>
</svg>
