<svg width="219" height="47" viewBox="0 0 219 47" fill="none" xmlns="http://www.w3.org/2000/svg">
<path d="M8.38592 0.554688H209.864C211.956 0.554688 213.961 1.38552 215.44 2.86442C216.919 4.34332 217.75 6.34912 217.75 8.44059V29.4054C217.75 30.441 217.546 31.4665 217.15 32.4232C216.753 33.38 216.173 34.2493 215.44 34.9816C214.708 35.7139 213.839 36.2947 212.882 36.691C211.925 37.0874 210.9 37.2913 209.864 37.2913H124.292C122.964 37.2913 121.724 37.8752 120.592 38.6835C119.459 39.4927 118.386 40.5624 117.392 41.6028C117.173 41.8312 116.959 42.0575 116.749 42.2797C115.989 43.0844 115.279 43.8349 114.602 44.4309C113.719 45.2087 113.015 45.6052 112.45 45.6052C111.891 45.6052 111.225 45.2157 110.388 44.4397C109.791 43.8857 109.174 43.2015 108.507 42.4614C108.257 42.1841 108 41.8989 107.734 41.6098C106.774 40.5666 105.719 39.4931 104.557 38.6806C103.391 37.8659 102.086 37.2913 100.631 37.2913H7.8578C4.04973 37.2913 0.5 33.7835 0.5 29.4054V8.44059C0.5 6.34912 1.33083 4.34332 2.80973 2.86442C4.28863 1.38552 6.29444 0.554688 8.38592 0.554688Z" stroke="white" stroke-opacity="0.58"/>
</svg>
